<svg fill="none" height="446" viewBox="0 0 1425 446" width="1425" xmlns="http://www.w3.org/2000/svg"><g stroke="#fff" stroke-linejoin="round" stroke-width="2"><g opacity=".25"><path d="m1240.5 347.917 145-345.99952 38 163.49952-164 279z"/><path d="m1093 195.917 148.5-154.4995 144-39.50002-145 345.99952z"/><path d="m1093 195.917-111 239 277.5 10-19-97z"/><path d="m1197 214.917-215 220 277.5 10 164-279.5z"/><path d="m1241.5 40.9175 144-39.00002 38 163.49952-226.5 49.5z"/><path d="m1241.5 40.9175-44.5 173.9995-214.5 219.5 110.5-238.5z"/></g><g opacity=".25"><path d="m43.5 6.91748 204 409.49952-147-123.5-87.5-203.9995z"/><path d="m1.5 227.417 35.5 123 63.5-57.5-87.5-203.9995z"/><path d="m44 421.417-7-71 63.5-57.5 147 123.5z"/></g></g></svg>