<svg enable-background="new 0 0 375 375" viewBox="0 0 375 375" xmlns="http://www.w3.org/2000/svg" xmlns:xlink="http://www.w3.org/1999/xlink"><clipPath id="a"><circle cx="350.2" cy="291.2" r="16.2"/></clipPath><g stroke-linejoin="round"><g fill="none" opacity=".25" stroke="#fff"><path d="m-7.5 213 102 204.7-73.5-61.7-43.8-102z"/><path d="m-28.5 323.2 17.8 61.5 31.7-28.7-43.8-102z"/><path d="m-7.2 420.2-3.5-35.5 31.7-28.7 73.5 61.8z"/></g><g fill="none" opacity=".25" stroke="#fff"><path d="m374 383.5 72.5-173 19 81.7-82 139.5z"/><path d="m300.2 307.5 74.2-77.2 72-19.7-72.5 173z"/><path d="m300.2 307.5-55.4 119.5 138.8 5-9.5-48.5z"/><path d="m352.2 317-107.4 110 138.8 5 82-139.8z"/><path d="m374.5 230 72-19.5 19 81.7-113.3 24.8z"/><path d="m374.5 230-22.2 87-107.3 109.7 55.2-119.2z"/></g><g clip-path="url(#a)" stroke="#7ebae2"><path d="m374.5 230 72-19.5 19 81.7-113.3 24.8z" fill="#ffa0bf"/><path d="m374.5 230-22.2 87-107.3 109.7 55.2-119.2z" fill="#ffc50d"/></g></g></svg>