<svg enable-background="new 0 0 1298 450" viewBox="0 0 1298 450" xmlns="http://www.w3.org/2000/svg"><g fill="none" stroke="#fff" stroke-linejoin="round" stroke-width="2"><g opacity=".25"><path d="m1178.5 418.9 145-346 38 163.5-164 279z"/><path d="m1031 266.9 148.5-154.5 144-39.5-145 346z"/><path d="m1031 266.9-111 239 277.5 10-19-97z"/><path d="m1135 285.9-215 220 277.5 10 164-279.5z"/><path d="m1179.5 111.9 144-39 38 163.5-226.5 49.5z"/><path d="m1179.5 111.9-44.5 174-214.5 219.5 110.5-238.5z"/></g><g opacity=".25"><path d="m-18.5 77.9 204 409.5-147-123.5-87.5-204z"/><path d="m-60.5 298.4 35.5 123 63.5-57.5-87.5-204z"/><path d="m-18 492.4-7-71 63.5-57.5 147 123.5z"/></g></g></svg>