<svg width="48" height="36" fill="none" xmlns="http://www.w3.org/2000/svg"><path d="M24.0115 23.8182c3.2317 0 5.8514-2.618 5.8514-5.8473 0-3.2294-2.6197-5.8474-5.8514-5.8474-3.2316 0-5.8513 2.618-5.8513 5.8474 0 3.2293 2.6197 5.8473 5.8513 5.8473z" fill="#039C49"/><path d="M22.3342.078L3.3758 10.2133c-.195.117-.3511.3119-.3901.5068L.06 23.8181c-.039.1949.039.3508.195.4288l24.81 11.6946c.195.078.4291.078.6631 0l15.8378-7.1727c.234-.1169.3901-.3118.4291-.5457l5.8514-26.235c.039-.195-.0781-.4288-.3121-.4678h-.078L22.7633 0c-.156 0-.312 0-.4291.078zm2.8867 34.85L2.6346 24.3249h8.0749L29.59 27.0146l-4.3691 7.9134zm5.3443-7.7964l9.2842 1.3254-13.3412 6.0812 4.057-7.4066zm-19.1145-3.6644l7.1387-14.0725 22.0402-2.5338L30.0581 26.118l-18.6074-2.6508zm29.881-17.6199L19.0965 8.4201 22.8804.9356l23.1324 1.3643-4.6811 3.5474zM18.0042 8.5371L5.8724 9.9404 21.554 1.5593 18.0042 8.537zM3.8439 11.1099L17.497 9.5506l-7.0217 13.8387H1.1132L3.844 11.1099zm37.2928 16.5674L31.0333 26.235 41.8779 6.627l4.7591-3.5474-5.5003 24.5977z" fill="#121C21"/></svg>