<svg width="96" height="36" viewBox="0 0 96 36" fill="none" xmlns="http://www.w3.org/2000/svg">
<path d="M68.0525 11.4085L62.7098 24.4669H66.3829L67.0507 22.5922H71.7256L72.3934 24.4669H76.0665L70.7907 11.4085H68.0525ZM68.0525 19.9418L69.455 15.4812L70.8574 19.9418H68.0525ZM50.288 12.4429C49.4866 11.7964 48.151 11.4732 46.2142 11.4732H41.8733V24.5316H45.1457V20.4589H46.6149C48.4181 20.4589 49.687 20.071 50.4884 19.2953C51.4234 18.3903 51.9576 17.162 51.8909 15.9337C51.9576 14.5762 51.3566 13.2833 50.288 12.4429ZM46.4814 17.4206H45.079V14.3822H46.3478C47.8838 14.3822 48.6184 14.8994 48.6184 15.9337C48.6184 16.9681 47.8839 17.4206 46.4814 17.4206ZM57.4339 21.5579H61.3741V24.5316H54.0279V11.4085H57.4339V21.5579ZM95.6341 17.9377C95.7009 16.5155 95.2334 15.0933 94.432 13.9297C94.0313 13.3479 93.4303 12.8307 92.8293 12.4429C91.5604 11.7318 90.0911 11.4085 88.6219 11.4732H84.1474V24.5316H89.4232C91.1596 24.5962 92.8292 23.9498 93.9645 22.7215C95.0999 21.364 95.7009 19.6832 95.6341 17.9377ZM88.9558 21.5579H87.4866V14.3822H88.9558C89.8907 14.3176 90.7589 14.7055 91.36 15.3519C91.961 16.1277 92.295 17.0974 92.2282 18.0024C92.2282 20.3296 91.1596 21.5579 88.9558 21.5579ZM32.8575 3.52179L21.8382 0.548096L17.9647 4.29754L14.1581 0.548096L3.1388 3.26321L0.0667673 13.9944L3.8734 17.7438L0 21.4286L2.87165 32.2244L13.8242 35.1981L17.6977 31.4487L21.5043 35.1981L32.5236 32.4183L35.5956 21.6872L31.789 17.9377L35.6624 14.1883L32.8575 3.52179ZM22.7732 3.90966L28.5833 5.46116L23.8417 9.98634L20.1686 6.36619L22.7732 3.90966ZM27.4481 18.0024L23.7082 21.5579L20.0351 17.9377L23.7082 14.3822L27.4481 18.0024ZM21.6378 12.1843L17.9647 15.7398L14.2916 12.1196L18.0316 8.56414L21.6378 12.1843ZM15.6942 17.8731L11.9542 21.4286L8.28111 17.8085L11.9542 14.2529L15.6942 17.8731ZM13.2231 3.84502L15.7609 6.36619L12.0211 9.9217L7.3462 5.33186L13.2231 3.84502ZM3.60625 13.154L5.20908 7.46517L9.88393 12.055L6.21083 15.6105L3.60625 13.154ZM3.53948 22.4629L6.14406 20.0064L9.81716 23.6265L5.07554 28.1517L3.53948 22.4629ZM13.0228 31.8365L7.21258 30.285L11.9542 25.7599L15.6273 29.38L13.0228 31.8365ZM14.1581 23.6265L17.898 20.071L21.5711 23.6912L17.898 27.2467L14.1581 23.6265ZM22.5728 31.9658L20.0351 29.4446L23.7082 25.8891L28.383 30.479L22.5728 31.9658ZM32.1897 22.6569L30.5869 28.3457L25.912 23.7558L29.6519 20.2003L32.1897 22.6569ZM29.6519 15.8044L25.9788 12.1843L30.7205 7.6591L32.2564 13.3479L29.6519 15.8044ZM77.8029 11.4085H81.2089V24.4669H77.8029V11.4085Z" fill="#A0A4A6"/>
</svg>
