<svg width="72" height="72" viewBox="0 0 72 72" fill="none" xmlns="http://www.w3.org/2000/svg">
<path d="M59 5H17V63H59V5Z" stroke="#121C21" stroke-width="2" stroke-linecap="round" stroke-linejoin="round"/>
<path d="M55 63V67H13V9H17" stroke="#121C21" stroke-width="2" stroke-linecap="round" stroke-linejoin="round"/>
<path d="M29 23C31.7614 23 34 20.7614 34 18C34 15.2386 31.7614 13 29 13C26.2386 13 24 15.2386 24 18C24 20.7614 26.2386 23 29 23Z" fill="#121C21" stroke="#121C21" stroke-width="2" stroke-linecap="round" stroke-linejoin="round"/>
<path d="M39 16H51" stroke="#121C21" stroke-width="2" stroke-linecap="round" stroke-linejoin="round"/>
<path d="M39 20H47" stroke="#121C21" stroke-width="2" stroke-linecap="round" stroke-linejoin="round"/>
<path d="M29 38C31.2091 38 33 36.2091 33 34C33 31.7909 31.2091 30 29 30C26.7909 30 25 31.7909 25 34C25 36.2091 26.7909 38 29 38Z" stroke="#121C21" stroke-width="2" stroke-linecap="round" stroke-linejoin="round"/>
<path d="M39 32H51" stroke="#121C21" stroke-width="2" stroke-linecap="round" stroke-linejoin="round"/>
<path d="M39 36H47" stroke="#121C21" stroke-width="2" stroke-linecap="round" stroke-linejoin="round"/>
<path d="M29 54C31.2091 54 33 52.2091 33 50C33 47.7909 31.2091 46 29 46C26.7909 46 25 47.7909 25 50C25 52.2091 26.7909 54 29 54Z" stroke="#121C21" stroke-width="2" stroke-linecap="round" stroke-linejoin="round"/>
<path d="M39 48H51" stroke="#121C21" stroke-width="2" stroke-linecap="round" stroke-linejoin="round"/>
<path d="M39 52H47" stroke="#121C21" stroke-width="2" stroke-linecap="round" stroke-linejoin="round"/>
</svg>
