<svg width="72" height="72" viewBox="0 0 72 72" fill="none" xmlns="http://www.w3.org/2000/svg">
<path d="M71.5008 35.7C67.0008 20 52.4008 9 36.0008 9C19.6008 9 5.00078 20 0.500781 35.7C0.400781 35.9 0.400781 36.1 0.500781 36.3C5.00078 52 19.6008 63 36.0008 63C52.4008 63 67.0008 52 71.5008 36.3C71.6008 36.1 71.6008 35.9 71.5008 35.7ZM39.6008 60.8C39.9008 60.6 40.0008 60.3 40.0008 60C40.0008 59.4 39.6008 59 39.0008 59H33.0008C32.4008 59 32.0008 59.4 32.0008 60C32.0008 60.3 32.2008 60.6 32.4008 60.8C18.5008 59.4 6.50078 49.6 2.50078 36C6.50078 22.4 18.6008 12.6 32.5008 11.2C32.2008 11.4 32.0008 11.7 32.0008 12C32.0008 12.6 32.4008 13 33.0008 13H39.0008C39.6008 13 40.0008 12.6 40.0008 12C40.0008 11.7 39.8008 11.4 39.6008 11.2C53.5008 12.6 65.5008 22.4 69.6008 36C65.5008 49.6 53.5008 59.4 39.6008 60.8ZM32.0008 18C32.0008 17.4 32.4008 17 33.0008 17H43.0008C43.6008 17 44.0008 17.4 44.0008 18C44.0008 18.6 43.6008 19 43.0008 19H33.0008C32.4008 19 32.0008 18.6 32.0008 18ZM46.0008 18C46.0008 17.4 46.4008 17 47.0008 17H52.0008C52.6008 17 53.0008 17.4 53.0008 18C53.0008 18.6 52.6008 19 52.0008 19H47.0008C46.4008 19 46.0008 18.6 46.0008 18ZM44.0008 54C44.0008 54.6 43.6008 55 43.0008 55H33.0008C32.4008 55 32.0008 54.6 32.0008 54C32.0008 53.4 32.4008 53 33.0008 53H43.0008C43.6008 53 44.0008 53.4 44.0008 54ZM53.0008 54C53.0008 54.6 52.6008 55 52.0008 55H47.0008C46.4008 55 46.0008 54.6 46.0008 54C46.0008 53.4 46.4008 53 47.0008 53H52.0008C52.6008 53 53.0008 53.4 53.0008 54ZM60.0008 48C60.0008 48.6 59.6008 49 59.0008 49H49.4008C48.8008 49 48.4008 48.6 48.4008 48C48.4008 47.4 48.8008 47 49.4008 47H59.0008C59.6008 47 60.0008 47.4 60.0008 48ZM49.3008 43H45.0008C44.4008 43 44.0008 42.6 44.0008 42C44.0008 41.4 44.4008 41 45.0008 41H50.1008C50.5008 39.7 50.8008 38.4 50.9008 37H47.9008C47.3008 37 46.9008 36.6 46.9008 36C46.9008 35.4 47.3008 35 47.9008 35H50.9008C50.4008 27.2 43.9008 21 36.0008 21C27.7008 21 21.0008 27.7 21.0008 36C21.0008 44.3 27.7008 51 36.0008 51C41.8008 51 46.7008 47.8 49.3008 43ZM41.0008 29H46.6008C47.2008 29 47.6008 29.4 47.6008 30C47.6008 30.6 47.2008 31 46.6008 31H41.0008C40.4008 31 40.0008 30.6 40.0008 30C40.0008 29.4 40.4008 29 41.0008 29ZM36.0008 23H39.0008C39.6008 23 40.0008 23.4 40.0008 24C40.0008 24.6 39.6008 25 39.0008 25H36.0008C35.4008 25 35.0008 24.6 35.0008 24C35.0008 23.4 35.4008 23 36.0008 23ZM33.0008 29H37.0008C37.6008 29 38.0008 29.4 38.0008 30C38.0008 30.6 37.6008 31 37.0008 31H33.0008C32.4008 31 32.0008 30.6 32.0008 30C32.0008 29.4 32.4008 29 33.0008 29ZM36.0008 35H44.0008C44.6008 35 45.0008 35.4 45.0008 36C45.0008 36.6 44.6008 37 44.0008 37H36.0008C35.4008 37 35.0008 36.6 35.0008 36C35.0008 35.4 35.4008 35 36.0008 35ZM36.0008 41H41.0008C41.6008 41 42.0008 41.4 42.0008 42C42.0008 42.6 41.6008 43 41.0008 43H36.0008C35.4008 43 35.0008 42.6 35.0008 42C35.0008 41.4 35.4008 41 36.0008 41ZM35.0008 48C35.0008 47.4 35.4008 47 36.0008 47H40.0008C40.6008 47 41.0008 47.4 41.0008 48C41.0008 48.6 40.6008 49 40.0008 49H36.0008C35.4008 49 35.0008 48.6 35.0008 48ZM49.4008 23H59.0008C59.6008 23 60.0008 23.4 60.0008 24C60.0008 24.6 59.6008 25 59.0008 25H49.4008C48.8008 25 48.4008 24.6 48.4008 24C48.4008 23.4 48.9008 23 49.4008 23ZM60.0008 30C60.0008 30.6 59.6008 31 59.0008 31H52.9008C52.3008 31 51.9008 30.6 51.9008 30C51.9008 29.4 52.3008 29 52.9008 29H59.0008C59.6008 29 60.0008 29.4 60.0008 30ZM60.0008 42C60.0008 42.6 59.6008 43 59.0008 43H53.0008C52.4008 43 52.0008 42.6 52.0008 42C52.0008 41.4 52.4008 41 53.0008 41H59.0008C59.6008 41 60.0008 41.4 60.0008 42ZM54.0008 35H65.8008C66.4008 35 66.8008 35.4 66.8008 36C66.8008 36.6 66.4008 37 65.8008 37H54.0008C53.4008 37 53.0008 36.6 53.0008 36C53.0008 35.4 53.4008 35 54.0008 35Z" fill="#121C21"/>
</svg>
