<svg width="63" height="63" fill="none" xmlns="http://www.w3.org/2000/svg"><path d="M9.012 54.0048h11.9936V63H0V41.9944h9.012v12.0104zm44.9928-11.943v11.943h-11.943l-.0506-.0674V63H63V41.9944h-9.0626l.0674.0674zM0 21.0056h9.0794l-.0674-.0674V8.9952h11.9262l.0674.0674V0H0v21.0056zM42.0112 0v8.9952h11.9936v12.0104H63V0H42.0112z" fill="#41494D"/><path d="M32.9318 21.0056L21.0056 9.0626V0h21.0056v8.9952H28.889l12.0105 12.0104h-7.9677zm-2.8636 20.9888h-7.9508l9.9385 9.9553 2.0551 2.0551H21.0056V63h21.0056v-9.0626l-5.9799-5.9799-5.9631-5.9631zm23.9366-20.9888V34.111l-2.0551-2.0551-9.9385-9.9385v7.9508l5.9631 5.9631 5.9631 5.9631H63V21.0056h-8.9952zM21.0056 32.9318L9.0794 21.0056H0v20.9888h9.012V28.889l11.9936 11.9936v-7.9508z" fill="#E7E8E9"/></svg>
