<svg width="72" height="72" viewBox="0 0 72 72" fill="none" xmlns="http://www.w3.org/2000/svg">
<path d="M36 54C45.9411 54 54 45.9411 54 36C54 26.0589 45.9411 18 36 18C26.0589 18 18 26.0589 18 36C18 45.9411 26.0589 54 36 54Z" stroke="#121C21" stroke-width="2" stroke-linecap="round" stroke-linejoin="round"/>
<path d="M19 71C28.9411 71 37 62.9411 37 53C37 43.0589 28.9411 35 19 35C9.05887 35 1 43.0589 1 53C1 62.9411 9.05887 71 19 71Z" fill="#121C21" stroke="#121C21" stroke-width="2" stroke-linecap="round" stroke-linejoin="round"/>
<path d="M30.6698 41.8C36.2598 37.97 38.5398 35.5 38.5398 33.24C38.5777 32.8687 38.537 32.4935 38.4204 32.139C38.3038 31.7844 38.1138 31.4584 37.863 31.182C37.6121 30.9056 37.3058 30.6852 36.9642 30.535C36.6225 30.3847 36.253 30.3081 35.8798 30.31C35.518 30.3019 35.1585 30.3698 34.8245 30.5092C34.4905 30.6485 34.1894 30.8564 33.9407 31.1192C33.692 31.3821 33.5011 31.6942 33.3804 32.0353C33.2596 32.3765 33.2117 32.7392 33.2398 33.1C33.242 33.494 33.2889 33.8866 33.3798 34.27L30.7098 34.4C30.5804 33.9206 30.5132 33.4265 30.5098 32.93C30.5098 29.98 32.7798 27.93 35.9098 27.93C36.6107 27.8817 37.314 27.9816 37.9737 28.2233C38.6334 28.4649 39.2348 28.8429 39.7387 29.3326C40.2425 29.8223 40.6375 30.4127 40.8978 31.0653C41.1582 31.7178 41.2781 32.418 41.2498 33.12C41.2498 35.98 39.1198 38.6 34.2498 41.55L41.1898 41.46V43.72H30.6698V41.8Z" fill="#121C21"/>
<path d="M35 18C35.1986 14.5333 36.3957 11.1981 38.4469 8.3963C40.4982 5.59455 43.316 3.4459 46.5608 2.2094C49.8056 0.972895 53.3387 0.701313 56.7344 1.42739C60.13 2.15347 63.2431 3.84622 65.6985 6.30156C68.1538 8.75691 69.8466 11.87 70.5726 15.2657C71.2987 18.6613 71.0271 22.1945 69.7906 25.4392C68.5541 28.684 66.4055 31.5018 63.6037 33.5531C60.802 35.6044 57.4667 36.8014 54 37" stroke="#121C21" stroke-width="2" stroke-linecap="round" stroke-linejoin="round"/>
<path d="M18.5696 49.16H18.4996C18.1459 49.8164 17.6084 50.3552 16.9529 50.7105C16.2975 51.0657 15.5525 51.222 14.8096 51.16V49C17.2096 49 18.8796 47.51 18.8996 45.26H21.2796V60.75H18.5696V49.16Z" fill="#FFC50D"/>
<path d="M55 19.1V19C55.4676 18.9883 55.9283 18.8846 56.3557 18.6949C56.7832 18.5051 57.1691 18.233 57.4913 17.894C57.8136 17.555 58.0659 17.1559 58.2338 16.7194C58.4017 16.2829 58.482 15.8175 58.47 15.35C58.47 12.71 56.27 10.88 53.06 10.88C49.67 10.88 47.32 13.13 47.32 16.36L50.11 16.45C50.11 14.45 51.26 13.17 52.97 13.17C54.68 13.17 55.74 14.17 55.74 15.57C55.74 16.97 54.49 18.12 52.25 18.12V20C54.38 20 55.74 21 55.74 22.62C55.74 24 54.74 24.93 53.06 24.93C52.6538 24.9576 52.2464 24.8968 51.8658 24.7519C51.4853 24.607 51.1406 24.3814 50.8556 24.0907C50.5705 23.7999 50.3518 23.4509 50.2145 23.0675C50.0771 22.6842 50.0245 22.2756 50.06 21.87L47.29 21.93C47.29 21.98 47.29 22.02 47.29 22.06C48.9903 23.4549 50.4206 25.1495 51.51 27.06C52.0129 27.1687 52.5256 27.2256 53.04 27.23C56.23 27.23 58.41 25.41 58.41 22.81C58.435 21.8698 58.093 20.9568 57.4565 20.2643C56.82 19.5718 55.939 19.1542 55 19.1V19.1Z" fill="#121C21"/>
</svg>
