<svg width="72" height="72" viewBox="0 0 72 72" fill="none" xmlns="http://www.w3.org/2000/svg">
<path d="M58.06 54L52 50.5V57.5L58.06 54Z" stroke="#121C21" stroke-width="2" stroke-linecap="round" stroke-linejoin="round"/>
<path d="M36 52C45.9411 52 54 43.9411 54 34C54 24.0589 45.9411 16 36 16C26.0589 16 18 24.0589 18 34C18 43.9411 26.0589 52 36 52Z" stroke="#121C21" stroke-width="2" stroke-linecap="round" stroke-linejoin="round"/>
<path d="M36 40C40.4183 40 44 36.4183 44 32C44 27.5817 40.4183 24 36 24C31.5817 24 28 27.5817 28 32C28 36.4183 31.5817 40 36 40Z" fill="#121C21"/>
<path d="M35.9996 52C39.8343 52.003 43.5682 50.7724 46.6496 48.49C45.637 46.5398 44.1083 44.905 42.2303 43.7641C40.3523 42.6231 38.1971 42.0197 35.9996 42.0197C33.8022 42.0197 31.6469 42.6231 29.7689 43.7641C27.8909 44.905 26.3622 46.5398 25.3496 48.49C28.4311 50.7724 32.165 52.003 35.9996 52V52Z" fill="#121C21"/>
<path d="M18.03 33H1V1H36V16" stroke="#121C21" stroke-width="2" stroke-linecap="round" stroke-linejoin="round"/>
<path d="M26 48.97V71H11V43H20.41" stroke="#121C21" stroke-width="2" stroke-linecap="round" stroke-linejoin="round"/>
<path d="M52.13 42H71V66H36V52" stroke="#121C21" stroke-width="2" stroke-linecap="round" stroke-linejoin="round"/>
<path d="M42 17V5H67V25H63V32L56 25H51.59" stroke="#121C21" stroke-width="2" stroke-linecap="round" stroke-linejoin="round"/>
<path d="M36 5H1" stroke="#121C21" stroke-width="2" stroke-linecap="round" stroke-linejoin="round"/>
<path d="M10 10H6" stroke="#121C21" stroke-width="2" stroke-linecap="round" stroke-linejoin="round"/>
<path d="M31 10H15" stroke="#121C21" stroke-width="2" stroke-linecap="round" stroke-linejoin="round"/>
<path d="M26 67H11" stroke="#121C21" stroke-width="2" stroke-linecap="round" stroke-linejoin="round"/>
<path d="M24.93 15H15" stroke="#121C21" stroke-width="2" stroke-linecap="round" stroke-linejoin="round"/>
<path d="M19 20H15" stroke="#121C21" stroke-width="2" stroke-linecap="round" stroke-linejoin="round"/>
<path d="M20.41 25H15" stroke="#121C21" stroke-width="2" stroke-linecap="round" stroke-linejoin="round"/>
<path d="M9 15H6" stroke="#121C21" stroke-width="2" stroke-linecap="round" stroke-linejoin="round"/>
<path d="M10 20H6" stroke="#121C21" stroke-width="2" stroke-linecap="round" stroke-linejoin="round"/>
<path d="M9 25H6" stroke="#121C21" stroke-width="2" stroke-linecap="round" stroke-linejoin="round"/>
</svg>
