<svg width="72" height="72" viewBox="0 0 72 72" fill="none" xmlns="http://www.w3.org/2000/svg">
<path d="M47 6H25C24.4477 6 24 6.44772 24 7V52C24 52.5523 24.4477 53 25 53H47C47.5523 53 48 52.5523 48 52V7C48 6.44772 47.5523 6 47 6Z" stroke="#121C21" stroke-width="2" stroke-linecap="round" stroke-linejoin="round"/>
<path d="M24 51H2.15C1.86504 51.0193 1.58406 50.9249 1.36854 50.7374C1.15302 50.55 1.02051 50.2849 1 50V9.00002C1.02051 8.71515 1.15302 8.45 1.36854 8.26259C1.58406 8.07518 1.86504 7.98077 2.15 8.00002H24" stroke="#121C21" stroke-width="2" stroke-linecap="round" stroke-linejoin="round"/>
<path d="M41 23H31C30.4477 23 30 23.4477 30 24V26C30 26.5523 30.4477 27 31 27H41C41.5523 27 42 26.5523 42 26V24C42 23.4477 41.5523 23 41 23Z" stroke="#121C21" stroke-width="2" stroke-linecap="round" stroke-linejoin="round"/>
<path d="M18 24H8C7.44772 24 7 24.4477 7 25V27C7 27.5523 7.44772 28 8 28H18C18.5523 28 19 27.5523 19 27V25C19 24.4477 18.5523 24 18 24Z" stroke="#121C21" stroke-width="2" stroke-linecap="round" stroke-linejoin="round"/>
<path d="M36 66C38.2091 66 40 64.2091 40 62C40 59.7909 38.2091 58 36 58C33.7909 58 32 59.7909 32 62C32 64.2091 33.7909 66 36 66Z" fill="#121C21" stroke="#121C21" stroke-width="2" stroke-linecap="round" stroke-linejoin="round"/>
<path d="M13 66C15.2091 66 17 64.2091 17 62C17 59.7909 15.2091 58 13 58C10.7909 58 9 59.7909 9 62C9 64.2091 10.7909 66 13 66Z" stroke="#121C21" stroke-width="2" stroke-linecap="round" stroke-linejoin="round"/>
<path d="M59 66C61.2091 66 63 64.2091 63 62C63 59.7909 61.2091 58 59 58C56.7909 58 55 59.7909 55 62C55 64.2091 56.7909 66 59 66Z" stroke="#121C21" stroke-width="2" stroke-linecap="round" stroke-linejoin="round"/>
<path d="M5 62H9" stroke="#121C21" stroke-width="2" stroke-linecap="round" stroke-linejoin="round"/>
<path d="M30 12H42" stroke="#121C21" stroke-width="2" stroke-linecap="round" stroke-linejoin="round"/>
<path d="M7 14H19" stroke="#121C21" stroke-width="2" stroke-linecap="round" stroke-linejoin="round"/>
<path d="M7 37H19" stroke="#121C21" stroke-width="2" stroke-linecap="round" stroke-linejoin="round"/>
<path d="M7 41H19" stroke="#121C21" stroke-width="2" stroke-linecap="round" stroke-linejoin="round"/>
<path d="M30 37H42" stroke="#121C21" stroke-width="2" stroke-linecap="round" stroke-linejoin="round"/>
<path d="M30 41H42" stroke="#121C21" stroke-width="2" stroke-linecap="round" stroke-linejoin="round"/>
<path d="M48 51H69.85C70.135 51.0193 70.4159 50.9249 70.6315 50.7374C70.847 50.55 70.9795 50.2849 71 50V9.00002C70.9795 8.71515 70.847 8.45 70.6315 8.26259C70.4159 8.07518 70.135 7.98077 69.85 8.00002H48" stroke="#121C21" stroke-width="2" stroke-linecap="round" stroke-linejoin="round"/>
<path d="M54 28H64C64.5523 28 65 27.5523 65 27V25C65 24.4477 64.5523 24 64 24H54C53.4477 24 53 24.4477 53 25V27C53 27.5523 53.4477 28 54 28Z" stroke="#121C21" stroke-width="2" stroke-linecap="round" stroke-linejoin="round"/>
<path d="M65 14H53" stroke="#121C21" stroke-width="2" stroke-linecap="round" stroke-linejoin="round"/>
<path d="M65 37H53" stroke="#121C21" stroke-width="2" stroke-linecap="round" stroke-linejoin="round"/>
<path d="M65 41H53" stroke="#121C21" stroke-width="2" stroke-linecap="round" stroke-linejoin="round"/>
<path d="M63 62H67" stroke="#121C21" stroke-width="2" stroke-linecap="round" stroke-linejoin="round"/>
<path d="M17 62H55" stroke="#121C21" stroke-width="2" stroke-linecap="round" stroke-linejoin="round"/>
</svg>
