<svg width="72" height="72" viewBox="0 0 72 72" fill="none" xmlns="http://www.w3.org/2000/svg">
<path d="M71 35H60V30C60 29.4 59.6 29 59 29H54V6H55C56.7 6 58 4.7 58 3C58 1.3 56.7 0 55 0H47C45.3 0 44 1.3 44 3C44 4.7 45.3 6 47 6H48V29H43C42.4 29 42 29.4 42 30V35H24V27.5C24 25.2 24.9 23 26.3 21.4C28.4 23.1 30.9 24 33.6 24C36.6 24 39.5 22.8 41.7 20.7C41.9 20.5 42 20.3 42 20C42 19.7 41.9 19.5 41.7 19.3C39.5 17.2 36.6 16 33.6 16C30.5 16 27.6 17.3 25.5 19.3C25 19.8 24.5 20.4 24 21V16C25.9 13.9 27 11.2 27 8.3C27 5.3 25.8 2.4 23.7 0.3C23.3 -0.1 22.6 -0.1 22.3 0.3C20.2 2.5 19 5.3 19 8.3C19 11.2 20.1 13.9 22 16V21C21.6 20.4 21.1 19.8 20.5 19.3C18.4 17.3 15.6 16 12.4 16C9.4 16 6.5 17.2 4.3 19.3C4.1 19.5 4 19.7 4 20C4 20.3 4.1 20.5 4.3 20.7C6.5 22.8 9.4 24 12.4 24C15.1 24 17.7 23.1 19.7 21.4C21.1 23.1 22 25.2 22 27.5V35H1C0.4 35 0 35.4 0 36C0 55.9 16.1 72 36 72C55.9 72 72 55.9 72 36C72 35.4 71.6 35 71 35ZM33.6 22C31.5 22 29.4 21.3 27.7 20C29.3 18.8 31.4 18 33.6 18C35.8 18 37.8 18.7 39.5 20C37.8 21.3 35.7 22 33.6 22ZM6.5 20C8.2 18.7 10.2 18 12.4 18C14.6 18 16.6 18.8 18.3 20C16.6 21.3 14.6 22 12.4 22C10.3 22 8.2 21.3 6.5 20ZM23 2.5C24.3 4.2 25 6.2 25 8.3C25 10.4 24.3 12.5 23 14.1C21.7 12.4 21 10.4 21 8.3C21 6.2 21.7 4.2 23 2.5ZM49 4H47C46.4 4 46 3.6 46 3C46 2.4 46.4 2 47 2H55C55.6 2 56 2.4 56 3C56 3.6 55.6 4 55 4H53C52.4 4 52 4.4 52 5V29H50V5C50 4.4 49.6 4 49 4ZM44 31H49H53H58V35H44V31ZM44 37H58V41C58 45.7 55.3 50 51 51.9C46.7 49.9 44 45.7 44 41V37ZM36 70C17.6 70 2.5 55.3 2 37H22V43.1C19.7 43.6 18 45.6 18 48C18 50.8 20.2 53 23 53C25.8 53 28 50.8 28 48C28 45.6 26.3 43.6 24 43.1V37H42V41C42 46.7 45.4 51.7 50.6 53.9C50.7 54 50.9 54 51 54C51.1 54 51.3 54 51.4 53.9C56.6 51.7 60 46.7 60 41V37H70C69.5 55.3 54.4 70 36 70Z" fill="#121C21"/>
</svg>
