<svg width="74" height="82" viewBox="0 0 74 82" fill="none" xmlns="http://www.w3.org/2000/svg">
<path d="M47 65C48.6569 65 50 63.6569 50 62C50 60.3431 48.6569 59 47 59C45.3431 59 44 60.3431 44 62C44 63.6569 45.3431 65 47 65Z" fill="#121C21" stroke="#121C21" stroke-width="2" stroke-miterlimit="10" stroke-linecap="round" stroke-linejoin="round"/>
<path d="M47 55C45.3 55 44 53.7 44 52V40C44 38.3 45.3 37 47 37C48.7 37 50 38.3 50 40V52C50 53.7 48.7 55 47 55Z" fill="#121C21" stroke="#121C21" stroke-width="2" stroke-miterlimit="10" stroke-linecap="round" stroke-linejoin="round"/>
<path d="M47 76C60.8071 76 72 64.8071 72 51C72 37.1929 60.8071 26 47 26C33.1929 26 22 37.1929 22 51C22 64.8071 33.1929 76 47 76Z" stroke="#121C21" stroke-width="2" stroke-miterlimit="10" stroke-linecap="round" stroke-linejoin="round"/>
<path d="M50 75.8V74C50 72.3 48.7 71 47 71C45.3 71 44 72.3 44 74V75.8" stroke="#121C21" stroke-width="2" stroke-miterlimit="10" stroke-linecap="round" stroke-linejoin="round"/>
<path d="M38 74.3V64C38 62.3 36.7 61 35 61C33.3 61 32 62.3 32 64V71" stroke="#121C21" stroke-width="2" stroke-miterlimit="10" stroke-linecap="round" stroke-linejoin="round"/>
<path d="M32 31V41C32 42.7 33.3 44 35 44C36.7 44 38 42.7 38 41V27.7" stroke="#121C21" stroke-width="2" stroke-miterlimit="10" stroke-linecap="round" stroke-linejoin="round"/>
<path d="M70.5 42.5C69.1 42.7 68 44 68 45.5V57.5C68 58.9 68.9 60 70.2 60.4" stroke="#121C21" stroke-width="2" stroke-miterlimit="10" stroke-linecap="round" stroke-linejoin="round"/>
<path d="M25 54C26.6569 54 28 52.6569 28 51C28 49.3431 26.6569 48 25 48C23.3431 48 22 49.3431 22 51C22 52.6569 23.3431 54 25 54Z" stroke="#121C21" stroke-width="2" stroke-miterlimit="10" stroke-linecap="round" stroke-linejoin="round"/>
<path d="M62 71V61C62 59.3 60.7 58 59 58C57.3 58 56 59.3 56 61V74.3" stroke="#121C21" stroke-width="2" stroke-miterlimit="10" stroke-linecap="round" stroke-linejoin="round"/>
<path d="M56 27.7V35C56 36.7 57.3 38 59 38C60.7 38 62 36.7 62 35V31" stroke="#121C21" stroke-width="2" stroke-miterlimit="10" stroke-linecap="round" stroke-linejoin="round"/>
<path d="M20 17.5C20 16.1 18.9 15 17.5 15C16.1 15 15 16.1 15 17.5V23.5C15 24.9 16.1 26 17.5 26C18.9 26 20 24.9 20 23.5V17.5Z" fill="#121C21"/>
<path d="M1.5002 34C1.4002 34 1.3002 34 1.2002 34C1.3002 34.7 1.4002 35.3 1.5002 36C1.8002 36 2.0002 36.2 2.0002 36.5V38.1C2.5002 39.8 3.2002 41.5 4.0002 43V36.4C4.0002 35.1 2.9002 34 1.5002 34Z" fill="#121C21"/>
<path d="M1.5 30.9C2.9 30.9 4 29.8 4 28.4V18.8C3.2 20.4 2.5 22 2 23.8V28.4C2 28.7 1.8 28.9 1.5 28.9C1.3 28.9 1.2 28.8 1.1 28.7C1 29.4 1 30.2 1 30.9C1.2 30.9 1.3 30.9 1.5 30.9Z" fill="#121C21"/>
<path d="M17.4004 36C16.0004 36 14.9004 37.1 14.9004 38.5V41.5C14.9004 42.9 16.0004 44 17.4004 44C18.8004 44 19.9004 42.9 19.9004 41.5V38.5C19.9004 37.1 18.8004 36 17.4004 36ZM17.9004 41.5C17.9004 41.8 17.7004 42 17.4004 42C17.1004 42 16.9004 41.8 16.9004 41.5V38.5C16.9004 38.2 17.1004 38 17.4004 38C17.7004 38 17.9004 38.2 17.9004 38.5V41.5Z" fill="#121C21"/>
<path d="M15 7.9V8.5C15 9.9 16.1 11 17.5 11C18.9 11 20 9.9 20 8.5V6C19.3 6.2 18.7 6.4 18 6.6V8.5C18 8.8 17.8 9 17.5 9C17.2 9 17 8.8 17 8.5V7C16.3 7.3 15.7 7.6 15 7.9Z" fill="#121C21"/>
<path d="M17.4004 32C18.7811 32 19.9004 30.8807 19.9004 29.5C19.9004 28.1193 18.7811 27 17.4004 27C16.0197 27 14.9004 28.1193 14.9004 29.5C14.9004 30.8807 16.0197 32 17.4004 32Z" fill="#121C21"/>
<path d="M25.5 27C24.1 27 23 28.1 23 29.5V38.2C23 39.2 23.6 40 24.4 40.4C24.7 39.8 25 39.2 25.3 38.6C25.1 38.5 25 38.4 25 38.2V29.5C25 29.2 25.2 29 25.5 29C25.8 29 26 29.2 26 29.5V37.4C26.6 36.5 27.3 35.6 28 34.7V29.4C28 28.1 26.9 27 25.5 27Z" fill="#121C21"/>
<path d="M7 14.4V19.5C7 20.9 8.1 22 9.5 22C10.9 22 12 20.9 12 19.5V9.79999C11.3 10.3 10.6 10.8 10 11.4V19.6C10 19.8 9.8 20 9.5 20C9.2 20 9 19.8 9 19.5V12.2C8.3 12.9 7.6 13.6 7 14.4Z" fill="#121C21"/>
<path d="M26 14.5C26 14.8 25.8 15 25.5 15C25.2 15 25 14.8 25 14.5V5.1C24.3 5.2 23.7 5.2 23 5.3V14.5C23 15.9 24.1 17 25.5 17C26.9 17 28 15.9 28 14.5V5C27.7 5 27.3 5 27 5C26.7 5 26.3 5 26 5V14.5Z" fill="#121C21"/>
<path d="M50 18.9V26.2C50.7 26.3 51.3 26.4 52 26.5V23.9C51.5 22.2 50.8 20.5 50 18.9Z" fill="#121C21"/>
<path d="M41.5 20C40.1 20 39 21.1 39 22.5V27.3C39.7 27.1 40.3 26.9 41 26.7V22.5C41 22.2 41.2 22 41.5 22C41.8 22 42 22.2 42 22.5V26.5C42.7 26.4 43.3 26.3 44 26.2V22.5C44 21.1 42.9 20 41.5 20Z" fill="#121C21"/>
<path d="M9.5 30.3C8.1 30.3 7 31.4 7 32.8V47.6C7.6 48.4 8.3 49.1 9 49.7V32.8C9 32.5 9.2 32.3 9.5 32.3C9.8 32.3 10 32.5 10 32.8V50.6C10.6 51.2 11.3 51.7 12 52.2V32.8C12 31.4 10.9 30.3 9.5 30.3Z" fill="#121C21"/>
<path d="M42 15.5C42 15.8 41.8 16 41.5 16C41.2 16 41 15.8 41 15.5V9.09999C40.4 8.69999 39.7 8.29999 39 7.89999V15.4C39 16.8 40.1 17.9 41.5 17.9C42.9 17.9 44 16.8 44 15.4V11.3C43.4 10.7 42.7 10.2 42 9.69999V15.5Z" fill="#121C21"/>
<path d="M49 26.1V17.2C48.4 16.2 47.7 15.3 47 14.4V26C47.7 26 48.3 26 49 26.1Z" fill="#121C21"/>
<path d="M33.5 15C32.1 15 31 16.1 31 17.5V22.5C31 23.9 32.1 25 33.5 25C34.9 25 36 23.9 36 22.5V17.5C36 16.1 34.9 15 33.5 15ZM34 22.5C34 22.8 33.8 23 33.5 23C33.2 23 33 22.8 33 22.5V17.5C33 17.2 33.2 17 33.5 17C33.8 17 34 17.2 34 17.5V22.5Z" fill="#121C21"/>
<path d="M25.5 25C26.9 25 28 23.9 28 22.5C28 21.1 26.9 20 25.5 20C24.1 20 23 21.1 23 22.5C23 23.9 24.1 25 25.5 25ZM25.5 22C25.8 22 26 22.2 26 22.5C26 22.8 25.8 23 25.5 23C25.2 23 25 22.8 25 22.5C25 22.2 25.2 22 25.5 22Z" fill="#121C21"/>
<path d="M17.5 47C16.1 47 15 48.1 15 49.5V54C15.7 54.3 16.3 54.7 17 54.9V49.4C17 49.1 17.2 48.9 17.5 48.9C17.8 48.9 18 49.1 18 49.4V55.3C18.7 55.5 19.3 55.8 20 55.9V49.4C20 48.1 18.9 47 17.5 47Z" fill="#121C21"/>
<path d="M31 5.3V10.5C31 11.9 32.1 13 33.5 13C34.9 13 36 11.9 36 10.5V6.6C35.3 6.4 34.7 6.1 34 5.9V10.4C34 10.8 33.8 11 33.5 11C33.2 11 33 10.8 33 10.5V5.7C32.3 5.6 31.7 5.4 31 5.3Z" fill="#121C21"/>
<path d="M59 53C60.7 53 62 51.7 62 50V47C62 45.3 60.7 44 59 44C57.3 44 56 45.3 56 47V50C56 51.7 57.3 53 59 53Z" stroke="#121C21" stroke-width="2" stroke-miterlimit="10" stroke-linecap="round" stroke-linejoin="round"/>
</svg>
