<svg xmlns="http://www.w3.org/2000/svg" width="81.07" height="44"><g><path fill="none" d="M0 0h81.07v44H0z"/><path d="M17.09 28.62l1.4 1.38h-7.1l1.43-1.35a.56.56 0 00.18-.55v-8.63a9.58 9.58 0 01.06-1.28l-4.78 12h-.05l-5-11c-.11-.27-.14-.29-.21-.48v7.24a2.55 2.55 0 00.24 1.41l2 2.65V30H0l2-2.65a2.55 2.55 0 00.24-1.41v-8a1.61 1.61 0 00-.33-1.1L.49 15h5.06l4.24 9.35L13.53 15h5l-1.39 1.57a.57.57 0 00-.22.54v11a.53.53 0 00.17.51zM45.8 18a1.92 1.92 0 10-1.9-1.92A1.91 1.91 0 0045.8 18zM29 23.75v.55h-6.36c0 2.74 1.4 3.84 3 3.84a3.45 3.45 0 003.23-2c-.57 2.71-2.23 4-4.71 4-2.68 0-5.2-1.63-5.2-5.41 0-4 2.53-5.57 5.33-5.57 2.33.05 4.71 1.13 4.71 4.59zm-3.26-.56c0-2.82-.58-3.57-1.44-3.57-1.05 0-1.69 1.12-1.69 4.13h3.13zm15.37 5.73l1.07 1V30h-4.7v-2a3.27 3.27 0 01-3.12 2.19c-2.43 0-4.19-1.92-4.19-5.45 0-3.31 1.9-5.52 4.57-5.52a2.78 2.78 0 012.74 1.72v-4.45a.56.56 0 00-.22-.54l-1-1 4.69-.56v14c-.01.3-.01.36.18.53zm-3.65-7.79a1.75 1.75 0 00-1.4-.67c-1.15 0-2.26 1.05-2.26 4.17 0 2.92 1 3.95 2.15 3.95a1.88 1.88 0 001.51-.82zm10.07 7.34v-9.08h-4.69l1 1.09a.61.61 0 01.19.54v9h4.71l-1-1c-.19-.2-.19-.26-.19-.55zM80 29a.53.53 0 01-.22-.52c0-1.7.07-3.31.07-4.72 0-3-1.19-4.54-3.29-4.54A3.69 3.69 0 0073 21.77a3 3 0 00-3-2.56 3.39 3.39 0 00-3.38 2.46v-2.28h-4.76l1 1.12a.61.61 0 01.19.54v9h4.71V30l-1-1c-.19-.17-.19-.24-.19-.52V22a1.9 1.9 0 011.58-1c1.32 0 1.61 1.29 1.61 3.24 0 1-.06 5.44-.06 5.76h4.76l-1.06-1a.52.52 0 01-.19-.52c0-1.69.06-3.39.06-4.72a8 8 0 00-.19-1.83 2.12 2.12 0 011.68-.93c1.33 0 1.63 1.33 1.63 3.25 0 1-.06 5.41-.06 5.76h4.74V30zm-19.76-.6v-9h-4.68l1 1.1a.58.58 0 01.19.53v6.4a1.88 1.88 0 01-1.53 1c-1.19 0-1.47-1.28-1.47-3.2v-5.84h-4.63l1.05 1.06a.56.56 0 01.19.52v4.7c0 2.93 1.13 4.48 3.23 4.48a3.44 3.44 0 003.25-2.47V30h4.74l-1.07-1c-.24-.25-.24-.33-.24-.61z" fill="#a0a4a6"/></g></svg>