<svg xmlns="http://www.w3.org/2000/svg" width="99.45" height="44"><g><path fill="none" d="M0 0h99.45v44H0z"/><path d="M21.73 18.32a3.09 3.09 0 11-3.09-3.1 3.09 3.09 0 013.09 3.1zm-10.5 4.27a3.1 3.1 0 103.08 3.09 3.18 3.18 0 00-3.08-3.09zm7.41 0a3.1 3.1 0 103.09 3.09 3.18 3.18 0 00-3.09-3.09zm-7.41-7.37a3.1 3.1 0 103.08 3.1 3.09 3.09 0 00-3.08-3.1zM29.93 22A15 15 0 1115 7a15 15 0 0114.93 15zm-4 0A11 11 0 1015 33a10.94 10.94 0 0010.93-11zM70 17.39H59.87c-.13 0-.26.14-.33.33l-1.31 5-.13.33-1.58-5.33a.54.54 0 00-.33-.33h-4c-.13 0-.26.14-.33.33l-1.51 5-.13.33-.13-.33-.59-2.5-.59-2.5a.59.59 0 00-.33-.33h-8v-4.27c-.07-.13-.2-.26-.33-.2h-.06l-5 1.58a.36.36 0 00-.33.2v2.76h-1.31c-.14 0-.27.13-.33.33v3.82c0 .13.13.26.33.32h1.31v4.68c0 3.28 1.77 4.8 5.12 4.8a8.6 8.6 0 003.61-.79v-4c0-.2-.2-.33-.33-.2a5.33 5.33 0 01-1.38.33 1.16 1.16 0 01-1.38-1v-3.82h2.89a.41.41 0 00.33-.32v-3.23L47.53 31a.51.51 0 00.33.33h4.2c.13 0 .26-.13.33-.33l1.77-5.59.92 2.9.79 2.69a.52.52 0 00.32.33h4.2c.14 0 .27-.13.33-.33l3.81-12.63V31c0 .13.13.27.33.33H70c.13 0 .26-.13.33-.33V17.72c-.09-.13-.22-.33-.33-.33zm13.5-4.47h-5.32c-.13 0-.26.13-.32.33v3.09a.41.41 0 00.32.33h5.32c.13 0 .26-.13.33-.33v-3.22c-.07-.07-.13-.2-.33-.2zm16 11.32c0 3.81-3.21 7.1-7.68 7.1a7.32 7.32 0 01-7.61-7.1c0-3.82 3.21-7.11 7.68-7.11a7.32 7.32 0 017.56 7.11zm-5.38.06a2.16 2.16 0 00-2.17-2.37h-.06a2.18 2.18 0 00-2.1 2.37 2.27 2.27 0 002.16 2.37H92a2.18 2.18 0 002.07-2.37zm-10.7-6.91h-5.17c-.13 0-.26.14-.33.33v13.1c0 .13.13.26.33.32h5.12c.13 0 .26-.13.33-.32v-13.1c0-.13-.13-.26-.33-.33zm-18.56-4.47c-.13 0-.26.13-.33.33v3.09c0 .13.13.27.33.33h5.32c.13 0 .26-.13.32-.33v-3.22c-.13-.13-.19-.2-.32-.2zm11.81 0h-5.12c-.13 0-.26.13-.32.33V31c0 .13.13.26.32.33h5.12c.14 0 .27-.14.33-.33V13.12c0-.07-.13-.2-.33-.2z" fill="#a0a4a6"/></g></svg>