<svg xmlns="http://www.w3.org/2000/svg" width="87.94" height="44"><g><path fill="none" d="M0 0h87.94v44H0z"/><path d="M41.88 14.4a2.5 2.5 0 00-2.39 1.8L35.7 29.41h2.49l1.1-3.83a.1.1 0 01.09-.06h5a.1.1 0 01.09.06l1.09 3.83h2.5L44.27 16.2a2.51 2.51 0 00-2.39-1.8zm2 9.2a.08.08 0 01-.07 0H40a.08.08 0 01-.07 0 .08.08 0 010-.08l1.91-6.67a.1.1 0 01.09-.06.11.11 0 01.09.06l1.91 6.67a.11.11 0 01-.07.08zm42.68-7.11a4.45 4.45 0 00-7.54 0A9.89 9.89 0 0077.6 22a9.89 9.89 0 001.4 5.51 4.43 4.43 0 007.54 0 9.89 9.89 0 001.4-5.51 9.89 9.89 0 00-1.4-5.51zm-2 10a1.88 1.88 0 01-3.56 0 9.94 9.94 0 01-.87-4.49 9.94 9.94 0 01.87-4.45 1.88 1.88 0 013.56 0 9.8 9.8 0 01.85 4.45 9.8 9.8 0 01-.86 4.45zm-29.12-6.55h2.4v9.47H56l-.25-.83a.09.09 0 00-.06-.06.08.08 0 00-.08 0 5.19 5.19 0 01-3.06 1.07 3.14 3.14 0 01-3.13-3.13v-6.52h2.4v6.4a1.38 1.38 0 001.38 1.38 5.2 5.2 0 002.22-.62.1.1 0 000-.08zm20.33 2.93v6.54h-2.4V23A1.38 1.38 0 0072 21.62a5.1 5.1 0 00-2.23.63.08.08 0 000 .07v7.09h-2.44V14.59h2.39v5.95a.1.1 0 00.14.07 5.21 5.21 0 012.78-.87 3.13 3.13 0 013.13 3.13zM63.6 19.94h1.45v1.88H63.6a.09.09 0 00-.09.09V27a.73.73 0 00.73.73 8 8 0 00.81 0v1.71a5.09 5.09 0 01-1.45.21 2.49 2.49 0 01-2.49-2.48v-5.26a.09.09 0 00-.09-.09h-1.46v-1.88H61a.09.09 0 00.09-.09v-3.13h2.4v3.13a.09.09 0 00.11.09zm-57.7 12a14.33 14.33 0 01-5.2-16L3.92 6h10.39l-3.21 9.89H.71L9.11 22 5.9 31.89zm22-16a14.33 14.33 0 01-5.21 16L19.51 22l8.41-6.11H17.53L14.31 6h10.4l3.21 9.89zm-13.59 9.84l8.41 6.11L14.31 38 5.9 31.89z" fill="#a0a4a6"/></g></svg>