<svg xmlns="http://www.w3.org/2000/svg" width="82.57" height="44"><g><path fill="none" d="M0 0h82.57v44H0z"/><path d="M24 27.7a1.55 1.55 0 01-2.8 1.35l-4.82-10-4.82 10a1.55 1.55 0 01-2.8-1.35l4.83-10 1.44-3a1.49 1.49 0 011.33-.7 1.41 1.41 0 011.35.72l1.49 3zm21.3-13.47H31.37A7.73 7.73 0 0023.71 22a7.88 7.88 0 007.7 7.84h2.89a1.56 1.56 0 001.53-1.58 1.52 1.52 0 00-1.53-1.53h-2.89A4.79 4.79 0 0126.68 22a4.62 4.62 0 014.73-4.64H39v11.06a1.56 1.56 0 103.11 0V17.34h3.2a1.56 1.56 0 001.53-1.58 1.5 1.5 0 00-1.54-1.53zm-35.25 7.39a1.33 1.33 0 00-1.35-1.36H5.27a1.34 1.34 0 00-1.39 1.36A1.36 1.36 0 005.23 23H8.7a1.33 1.33 0 001.35-1.38zm7.3 2.88h-1.89a1.34 1.34 0 00-1.4 1.35 1.37 1.37 0 001.4 1.36h1.89a1.36 1.36 0 100-2.71zm-6.94-8.79a1.56 1.56 0 00-1.58-1.53h-7.3A1.56 1.56 0 000 15.76v12.66A1.63 1.63 0 001.58 30a1.56 1.56 0 001.53-1.58V17.29h5.72a1.6 1.6 0 001.58-1.58zm46.2 7.35l-6.09-4.24a.8.8 0 01-.27-.63.94.94 0 01.9-.94h4.6a1.54 1.54 0 001.58-1.54 1.56 1.56 0 00-1.58-1.57h-4.5a4.13 4.13 0 00-4.15 4.14A3.06 3.06 0 0048.41 21l6 4.06a.8.8 0 01.36.72.81.81 0 01-.9.81h-5.19a1.66 1.66 0 00-1.58 1.61 1.59 1.59 0 001.58 1.57h5.45a3.92 3.92 0 003.92-3.92 3.17 3.17 0 00-1.44-2.79zm26 5.36A1.54 1.54 0 1181 26.85a1.56 1.56 0 011.57 1.57zm-.18 0A1.42 1.42 0 0081 27a1.37 1.37 0 00-1.36 1.39A1.33 1.33 0 0081 29.77a1.36 1.36 0 001.39-1.35zm-1.08.14l.31.67h-.26l-.27-.63h-.41v.63h-.18v-1.66h.59a.52.52 0 01.54.54c-.05.18-.14.4-.36.45zm.13-.45c0-.18-.09-.32-.36-.32h-.36v.63h.36a.32.32 0 00.32-.31zm1.04-12.31A1.5 1.5 0 0081 14.23H61a1.49 1.49 0 00-1.54 1.53v12.48A1.6 1.6 0 0061 29.82h7.3a1.58 1.58 0 000-3.16h-5.7v-9.32h12v11.08a1.56 1.56 0 103.11 0v-11H81a1.55 1.55 0 001.52-1.62zm-17.71 4.42a1.34 1.34 0 00-1.4 1.35 1.33 1.33 0 001.36 1.35h3.47a1.35 1.35 0 100-2.7z" fill="#a0a4a6"/></g></svg>