<svg xmlns="http://www.w3.org/2000/svg" width="120.89" height="44"><g><path fill="none" d="M0 0h120.89v44H0z"/><path d="M49 25.76c0 2.62-2.28 4.59-5.31 4.59-3.59 0-5.29-2.2-5.69-4.27a.58.58 0 01.4-.65l1.29-.43h.07a.56.56 0 01.67.46 3.12 3.12 0 003.25 2.58c1.73 0 2.8-.81 2.8-2.12 0-1-.75-1.79-2-2.06l-2.1-.45c-2.38-.51-3.78-2.1-3.78-4.24a4.93 4.93 0 015.09-4.61c3.72 0 4.82 2.44 5.12 3.5a.57.57 0 01-.36.7l-1.16.41a.59.59 0 01-.45 0 .6.6 0 01-.3-.36 2.74 2.74 0 00-2.8-2A2.4 2.4 0 0041.12 19a1.89 1.89 0 001.71 1.91l2.2.48C47.57 22 49 23.55 49 25.76zm11.56-1v.31a.58.58 0 01-.58.54h-6.81a.1.1 0 00-.09.05.12.12 0 000 .09 2.7 2.7 0 002.75 2.43 2.47 2.47 0 002.48-1.57.58.58 0 01.72-.32l1 .36a.53.53 0 01.33.31.57.57 0 010 .46 4.73 4.73 0 01-4.57 3 5.19 5.19 0 01-3.68-1.47 5.6 5.6 0 01-1.57-4.1 5.2 5.2 0 015-5.5c3.11-.07 5.04 2.02 5.04 5.39zm-2.53-1.32a2.29 2.29 0 00-2.48-2 2.44 2.44 0 00-2.43 2 .1.1 0 000 .09.12.12 0 00.1 0h4.67a.11.11 0 00.09 0 .08.08 0 00.07-.11zm62.26 4.48h-.41c-.85 0-1.17-.31-1.17-1.14v-4.84a.12.12 0 01.12-.11h1.46a.58.58 0 00.58-.58v-1.07a.58.58 0 00-.58-.58h-1.46a.12.12 0 01-.12-.12V17a.58.58 0 00-.58-.58h-1.09a.59.59 0 00-.58.58v1.27a1.17 1.17 0 01-1.31 1.31H115a.57.57 0 00-.57.58v1.06a.57.57 0 00.57.58h1.21a.12.12 0 01.12.12v5.13a2.83 2.83 0 003 3.08 5.31 5.31 0 001.12-.12.58.58 0 00.45-.57v-1a.59.59 0 00-.59-.54zm-48.2-7.72v8.88A5.53 5.53 0 0171 32.66a5.06 5.06 0 01-4.09 1.63 4.63 4.63 0 01-4.78-3.55.59.59 0 01.44-.69l1.21-.28a.57.57 0 01.44.07.6.6 0 01.26.36 2.4 2.4 0 002.43 1.93c1.93 0 2.83-1 2.83-3v-.43a.1.1 0 00-.08-.11.1.1 0 00-.11 0 3.88 3.88 0 01-2.64.95 4.78 4.78 0 01-4.81-5.07 4.79 4.79 0 014.81-5.09 3.81 3.81 0 012.66.88.1.1 0 00.11 0 .13.13 0 00.08-.12.58.58 0 01.58-.59h1.23a.58.58 0 01.54.63zm-2.33 4.31a2.65 2.65 0 10-5.27 0c0 1.83 1 3 2.66 3a2.66 2.66 0 002.63-3.02zm32.08.25v.31a.58.58 0 01-.58.54h-6.81a.12.12 0 00-.09 0 .17.17 0 000 .1 2.71 2.71 0 002.75 2.44 2.48 2.48 0 002.48-1.58.58.58 0 01.72-.32l1 .36a.58.58 0 01.34.31.64.64 0 010 .47 4.76 4.76 0 01-4.57 2.95 5.15 5.15 0 01-3.68-1.47 5.6 5.6 0 01-1.58-4.1 5.21 5.21 0 015-5.5c3.11 0 5.04 2.1 5.04 5.47zm-2.52-1.31a2.29 2.29 0 00-2.48-2 2.43 2.43 0 00-2.43 2 .1.1 0 000 .09.12.12 0 00.09.05h4.68a.15.15 0 00.09 0 .19.19 0 00.07-.16zm9.86-4.12a3.68 3.68 0 00-2.64 1 .12.12 0 01-.2-.09v-.07a.58.58 0 00-.58-.58h-1.21a.58.58 0 00-.58.58v9.29a.58.58 0 00.58.58h1.26a.58.58 0 00.58-.58V24c0-1.21.55-2.51 2.09-2.51 1.39 0 2.09.77 2.09 2.29v5.64a.58.58 0 00.58.58h1.26a.57.57 0 00.57-.58v-6c.02-2.51-1.43-4.11-3.78-4.11zm-23 0A3.84 3.84 0 0083 20.79a.14.14 0 01-.11.06.08.08 0 01-.08-.05 3.41 3.41 0 00-2.93-1.5 3.9 3.9 0 00-2.6.95.11.11 0 01-.13 0 .12.12 0 01-.07-.11.58.58 0 00-.58-.58h-1.18a.58.58 0 00-.58.58v9.29a.58.58 0 00.58.58h1.23a.58.58 0 00.58-.58V23.8a2.08 2.08 0 012.1-2.3 1.8 1.8 0 011.88 2.05v5.92a.58.58 0 00.58.58H83a.58.58 0 00.58-.58v-5.69a2.09 2.09 0 012.07-2.29 1.81 1.81 0 011.89 2.06v5.92a.57.57 0 00.57.58h1.19a.58.58 0 00.58-.58v-6.13c0-2.78-1.88-4.03-3.68-4.03zM18.8 25.42a1.34 1.34 0 00-1.34-1.35H1.35a1.35 1.35 0 100 2.69h16.11a1.34 1.34 0 001.34-1.34zm6.74-1.29a1.34 1.34 0 00-1.68.89A10.25 10.25 0 0114 32.31a10.43 10.43 0 01-3-.46 1.35 1.35 0 10-.8 2.57A13.21 13.21 0 0014 35a13 13 0 0012.44-9.19 1.35 1.35 0 00-.9-1.68zm1.12-6.89H10.55a1.35 1.35 0 100 2.69h16.11a1.35 1.35 0 100-2.69zm-23.8 2.69A1.33 1.33 0 004.14 19 10.26 10.26 0 0114 11.69a10.45 10.45 0 013.06.46 1.35 1.35 0 00.8-2.57 13 13 0 00-16.29 8.61 1.32 1.32 0 00-.06.39 1.34 1.34 0 001.35 1.35zM22 14.8a1.35 1.35 0 10-1.35-1.34A1.34 1.34 0 0022 14.8zM6 29.2a1.35 1.35 0 101.35 1.34A1.34 1.34 0 006 29.2z" fill="#a0a4a6"/></g></svg>