<svg xmlns="http://www.w3.org/2000/svg" width="81" height="44"><g><path fill="none" d="M0 0h81.01v44H0z"/><path d="M16 20.75v10.37a.24.24 0 01-.13.25 11.13 11.13 0 01-6 1.57C5.36 32.94 0 31.56 0 22.25S4.68 11 9.23 11c3.93 0 5.49.87 5.74 1.06a.33.33 0 01.12.25l-.75 3.25v.07c-.06.18-.18.31-.37.25a11.73 11.73 0 00-3.97-.63c-2.68 0-5.49.81-5.49 6.75s2.75 6.69 4.68 6.69a6.79 6.79 0 002.24-.19v-4.13H8.79a.29.29 0 01-.31-.31v-3.31a.29.29 0 01.31-.31h6.86a.3.3 0 01.35.31zm34.42-8.88h-3.84a.3.3 0 00-.31.32v7.44h-6v-7.44a.3.3 0 00-.32-.32h-3.8a.3.3 0 00-.31.32v20.06a.29.29 0 00.31.31H40a.3.3 0 00.32-.31v-8.56h6v8.56a.29.29 0 00.31.31h3.87a.29.29 0 00.31-.31V12.19a.39.39 0 00-.42-.32zm-30 .44a2.5 2.5 0 102.5 2.5 2.51 2.51 0 00-2.53-2.5zm1.87 6.13h-3.8a.35.35 0 00-.31.37v13.31c0 .38.25.5.56.5h3.43c.37 0 .5-.18.5-.5V18.75a.39.39 0 00-.41-.31zm43 0h-3.8a.29.29 0 00-.31.31v9.88a4.41 4.41 0 01-2.31.68c-1.37 0-1.75-.62-1.75-1.93v-8.63a.29.29 0 00-.31-.31h-3.93a.29.29 0 00-.31.31V28c0 4 2.25 5 5.3 5a9 9 0 004.56-1.38c.06.25.06.57.12.82a.33.33 0 00.25.18h2.43a.29.29 0 00.31-.31v-13.5a.35.35 0 00-.31-.37zM81 25c0 6.19-2 7.94-5.49 7.94a6.81 6.81 0 01-4.51-1.5 2.38 2.38 0 01-.19.93.31.31 0 01-.25.19h-2.71a.29.29 0 01-.31-.31V12.19a.3.3 0 01.31-.32h3.87a.3.3 0 01.31.32V19a6.88 6.88 0 013.62-.94C77.83 18 81 18.81 81 25zm-4.43.25c0-3.25-1.31-3.69-2.68-3.56a5.63 5.63 0 00-2 .62v6.38a4.64 4.64 0 002.18.62c1.93.07 2.51-.62 2.51-4.06zm-42.9 4c-.19 0-.63.06-1.06.06-1.44 0-1.88-.68-1.88-1.5v-5.62h2.87a.3.3 0 00.32-.32v-3.12a.3.3 0 00-.32-.31h-2.86v-3.81c0-.13-.06-.19-.24-.19h-3.93c-.13 0-.25.06-.25.19v3.93s-1.94.5-2.12.5a.42.42 0 00-.25.32v2.49a.3.3 0 00.31.32h2v5.94c0 4.43 3.11 4.87 5.17 4.87a7.45 7.45 0 002.31-.38.34.34 0 00.19-.31v-2.68a.29.29 0 00-.25-.38z" fill="#a0a4a6"/></g></svg>