<svg xmlns="http://www.w3.org/2000/svg" width="139.49" height="44"><g><path fill="none" d="M0 0h139.48v44H0z"/><path d="M42.25 17.58a8.45 8.45 0 00-5-1.38h-4.2v13.47h4.26a8.38 8.38 0 005-1.5A5.67 5.67 0 0044.05 26a8.37 8.37 0 00.6-3.19 7.9 7.9 0 00-.6-3.13 5.12 5.12 0 00-1.8-2.1zm-1.8 8.9a6.32 6.32 0 01-3.6.9h-1.38v-9h1.32a6.32 6.32 0 013.6.9A3.84 3.84 0 0142 22.81c0 1.81-.47 3.01-1.55 3.67zm8.11-10a1.32 1.32 0 01.42 1 1.45 1.45 0 01-.42 1.08 1.72 1.72 0 01-1.08.42 1.43 1.43 0 01-1.08-.42 1.45 1.45 0 01-.4-1.1 1.32 1.32 0 01.43-1 1.43 1.43 0 011.05-.46 1.36 1.36 0 011.08.44zm-2.23 3.73h2.41v9.5h-2.41zm11 .72a3.43 3.43 0 00-2.34-1 4.15 4.15 0 00-3.24 1.39 4.81 4.81 0 00-1.32 3.43 4.65 4.65 0 001.26 3.37 4.17 4.17 0 003.24 1.32 3.67 3.67 0 002.34-.78v.24a2.26 2.26 0 01-.66 1.8 2.61 2.61 0 01-1.74.66 3 3 0 01-2.64-1.56l-1.63 1.55v.06a6.36 6.36 0 001.62 1.45 5.14 5.14 0 002.64.72 4.56 4.56 0 003.42-1.32 4.89 4.89 0 001.26-3.43v-8.72H57.2v.78zm-.6 5.65a2.18 2.18 0 01-3.24 0 2.67 2.67 0 01-.6-1.86 3 3 0 01.6-1.87 2.18 2.18 0 013.24 0 3.07 3.07 0 01.66 1.87 2.81 2.81 0 01-.67 1.82zm5-6.37h2.4v9.5h-2.4zM64 16.44a1.32 1.32 0 01.42 1 1.45 1.45 0 01-.42 1.1 1.72 1.72 0 01-1.1.46 1.44 1.44 0 01-1.5-1.5 1.32 1.32 0 01.42-1 1.45 1.45 0 011.08-.5 1.36 1.36 0 011.1.44zm5.4 3.67h2.2v2.16h-2.22v3.61a1.89 1.89 0 00.3 1.26 1.5 1.5 0 001.14.3l.84-.06v2.17H70.4a3.41 3.41 0 01-2.58-.78 3.89 3.89 0 01-.72-2.65v-3.91h-1.44v-2.16H67v-2.59h2.34zm13.39-4h2.4v13.5h-2.4zm26.46 10.1l1.57 1.5a4.82 4.82 0 01-4.09 2.11 4.45 4.45 0 01-3.36-1.44 4.92 4.92 0 01-1.37-3.52 4.89 4.89 0 011.38-3.55 2.35 2.35 0 01.6-.48 4.84 4.84 0 016.73 1l-1.56 1.5a3.48 3.48 0 00-2.32-1.33 2.36 2.36 0 00-1.74.78 3.1 3.1 0 000 4 2.16 2.16 0 001.74.78 2.52 2.52 0 001.26-.36 3.36 3.36 0 001.14-.96zm8.71.66a3.74 3.74 0 01-.72.54 2.73 2.73 0 01-1.2.3 2.27 2.27 0 01-1.62-.6 2.22 2.22 0 01-.72-1.44h6.3v-.9a5.61 5.61 0 00-.24-1.75 7.36 7.36 0 00-.72-1.56 3.62 3.62 0 00-1.38-1.14 4.35 4.35 0 00-2-.43 3.94 3.94 0 00-3.24 1.45 5.19 5.19 0 00-1.2 3.55 4.87 4.87 0 001.32 3.55 4.62 4.62 0 003.46 1.41 4.84 4.84 0 003.9-1.93l.06-.06-1.56-1.5a1.65 1.65 0 01-.46.54zm-3.48-4.33a1.82 1.82 0 011.26-.48 1.59 1.59 0 011.32.48 1.64 1.64 0 01.48 1.14h-3.66a2.61 2.61 0 01.58-1.11zm10.8-2.65a4.86 4.86 0 00-2.22.55 3.91 3.91 0 00-1.62 1.5h.06l1.5 1.47a2.56 2.56 0 012.32-1.41 2 2 0 011.26.42 1.28 1.28 0 01.48 1V24a8.11 8.11 0 00-1.74-.3 4.46 4.46 0 00-2.88.85 2.78 2.78 0 00-1.08 2.4 2.55 2.55 0 001 2.17 3.67 3.67 0 004.8-.24v.78h2.34v-6.19a3.42 3.42 0 00-1.2-2.64 4.92 4.92 0 00-3.04-.91zm1.68 7.1a2.85 2.85 0 01-2 .72 1.41 1.41 0 01-1-.3.86.86 0 01-.36-.72.87.87 0 01.42-.78 2.48 2.48 0 011.14-.3 4.82 4.82 0 011.8.36zm12.54-2.88v5.53h-2.4v-5.5a2.26 2.26 0 00-.48-1.51 1.63 1.63 0 00-1.26-.54 1.68 1.68 0 00-1.44.6 2.81 2.81 0 00-.54 1.69v5.23H131v-9.44h2.34v.6a3.46 3.46 0 012.28-.85 3.51 3.51 0 012.76 1.15 3.93 3.93 0 011.1 3.07zm-62.68-4.19a4.86 4.86 0 00-2.22.55A3.91 3.91 0 0073 22l1.56 1.44A2.56 2.56 0 0176.82 22a2 2 0 011.26.42 1.26 1.26 0 01.49 1V24a8.21 8.21 0 00-1.75-.3 4.46 4.46 0 00-2.88.85 2.78 2.78 0 00-1.08 2.4 2.55 2.55 0 001 2.17 3.51 3.51 0 002.28.78 3.58 3.58 0 002.53-1v.78H81v-6.21a3.42 3.42 0 00-1.2-2.64 4.68 4.68 0 00-2.98-.91zM78.51 27a2.87 2.87 0 01-2.05.72 1.41 1.41 0 01-1-.3.86.86 0 01-.36-.72.87.87 0 01.42-.78 2.48 2.48 0 011.14-.3 4.9 4.9 0 011.81.36zm15.3-11a7 7 0 107 7 7 7 0 00-7-7zm4.5 6.92a4.5 4.5 0 11-4.5-4.51 4.53 4.53 0 014.5 4.46zm-75.08-4.68a12 12 0 01-7.62 15.16 11.34 11.34 0 01-3.73.6v-4.63H7.26v-4.63h4.62v4.57a7.38 7.38 0 007.33-7.4 8 8 0 00-.48-2.65 7.06 7.06 0 00-4.15-4.15 7.28 7.28 0 00-9.48 4.21A8 8 0 004.62 22H0a12 12 0 0112-12 11.24 11.24 0 013.72.6 11.86 11.86 0 017.51 7.64zM3.78 29.37h3.54v3.55H3.78zm0 0H.84v-2.95h2.94z" fill="#a0a4a6"/></g></svg>