<svg xmlns="http://www.w3.org/2000/svg" width="68.53" height="44"><g><path fill="none" d="M0 0h68.53v44H0z"/><path d="M18.3 17c-5.56 2.45-9.19 6.12-9.39 10.2 0 0 1.47 1.13 6.21 2.87a34.55 34.55 0 007.34 1.88v-9.08a6.23 6.23 0 011.58-4 44 44 0 0010.27 1.19 44.14 44.14 0 0010.29-1.19 6.27 6.27 0 011.57 4v9.08A34.71 34.71 0 0053.48 30c4.74-1.74 6.21-2.87 6.21-2.87-.2-4.08-3.84-7.76-9.4-10.2 5.56-2.45 9.19-6.13 9.39-10.2 0 0-1.47-1.13-6.21-2.88A34.55 34.55 0 0046.13 2v9.08a6.2 6.2 0 01-1.57 4 44.51 44.51 0 00-10.26-1.22A44.68 44.68 0 0024 15.05a6.2 6.2 0 01-1.57-4V2a34.71 34.71 0 00-7.34 1.88C10.37 5.63 8.9 6.76 8.9 6.76c.2 4.08 3.83 7.75 9.4 10.24zm15.89-2h.21a14.83 14.83 0 018 2 14.92 14.92 0 01-8 2h-.21a14.92 14.92 0 01-7.95-2 14.83 14.83 0 017.95-2.08zM5.3 38.08v2.21A1.47 1.47 0 013.67 42h-2A1.47 1.47 0 010 40.29v-2.21c0-.14 0-.31.27-.31h.83c.27 0 .25.19.25.31v2.21a.53.53 0 00.61.58h1.38a.53.53 0 00.6-.58v-2.21c0-.12 0-.31.25-.31H5c.33 0 .3.23.3.31zm6.28 0V42H10a.83.83 0 01-.77-.27C8.7 41 7.9 40 7.08 39v2.69c0 .12 0 .3-.25.3h-.77c-.28 0-.25-.18-.25-.3v-3.6c0-.12 0-.31.25-.31h1.5c.42 0 1 .85 1.42 1.41s.87 1.08 1.25 1.56v-2.67c0-.12 0-.31.26-.31h.84c.27 0 .25.23.25.31zm4.22-.31h-3.71V42h1.31v-.9l.43.88h2c1.89 0 1.71-1 1.71-2.63a1.56 1.56 0 00-1.74-1.58zm-.19 3.1h-2.22v-2h2.12c.44 0 .72 0 .72 1 0 .35.05 1-.62 1zm7.14.6c0 .34 0 .53-.26.53h-3.55c-.3 0-.88-.09-.88-1v-2.34a.85.85 0 011-.86h3.42c.29 0 .26.19.26.54s0 .51-.26.51h-2.7c-.07 0-.32 0-.32.22s-.05.36.22.36H22s.34.66.38.77.05.19-.16.19h-2.45l-.38-.74v1.1c0 .26.23.21.29.21h2.81c.28.04.26.19.26.51zm5.84-2.35c0-1.35-.73-1.35-1.23-1.35h-3.75a.34.34 0 00-.35.37v3.7a.14.14 0 00.13.14h1.09c.05 0 .21 0 .21-.17v-1.75s.3.6.45.87h1.62c.11 0 .4 0 .4.5 0 .19-.05.55.18.55h1.09c.07 0 .16 0 .16-.22 0-.45.08-1.32-.59-1.43.4-.28.59-.33.59-1.21zm-2.21.7h-1.72v-.76c0-.08 0-.18.27-.18h1.66c.58 0 .62.08.62.51 0 .22 0 .43-.83.43zm8.66-2h-1.27s-2 3.56-2.27 4.11V42h1.42c.2-.33.77-1.41.87-1.58.09.18.38.84.38.84h1.72l.41.74h1.41v-.14c-.28-.51-1.64-3-1.84-3.37-.29-.57-.55-.69-.87-.69zm.22 2.49H34l-.06-.06.66-1.25h.06c.06.11.62 1.17.66 1.27zm8.17-1.17c0-1.35-.73-1.35-1.23-1.35h-3.75a.34.34 0 00-.35.37v3.7a.14.14 0 00.13.14h1.09s.2 0 .2-.17v-1.77s.31.6.46.87h1.62c.11 0 .4 0 .4.5 0 .19-.06.55.17.55h1.1c.07 0 .15 0 .15-.22 0-.45.09-1.32-.58-1.43.4-.28.59-.33.59-1.21zm-2.22.7H39.5v-.76c0-.08 0-.18.26-.18h1.67c.58 0 .62.08.62.51 0 .2 0 .41-.84.41zm9.51 1.86c0 .12 0 .3-.24.3h-.76c-.28 0-.26-.18-.26-.3v-2.64c-.53.95-1.3 2.39-1.59 2.92H46.7c-.28-.53-1.05-2-1.58-2.92v2.62c0 .12 0 .3-.25.3h-.76c-.28 0-.26-.18-.26-.3v-3.6c0-.12 0-.31.26-.31h1.32c.19 0 .47 0 .78.58s.73 1.54 1.07 2.09c.35-.55.86-1.59 1.1-2.09s.58-.58.79-.58h1.31c.27 0 .24.19.24.31zm4.72-3.93h-2.76c-1.55 0-1.47 1.25-1.47 2S51.16 42 52.4 42h3.3c1.27 0 1.2-1.33 1.2-2.2s.1-2.05-1.46-2.05zm.07 2.07c0 .44 0 1.09-.61 1.09h-1.64c-.63 0-.59-.65-.59-1.09s-.09-1 .72-1h1.39c.82-.02.73.59.73.98zm7.15-1.74v2.21A1.47 1.47 0 0161 42h-2a1.47 1.47 0 01-1.62-1.69v-2.23c0-.14 0-.31.27-.31h.83c.27 0 .25.19.25.31v2.21a.53.53 0 00.61.58h1.36a.53.53 0 00.6-.58v-2.21c0-.12 0-.31.25-.31h.83c.31 0 .28.23.28.31zm5.27 2.25c.41-.28.6-.32.6-1.21 0-1.35-.73-1.35-1.24-1.35h-3.75a.33.33 0 00-.34.37v3.7a.13.13 0 00.12.14h1.1s.2 0 .2-.17v-1.77s.3.6.46.87h1.62c.11 0 .4 0 .4.5 0 .19-.06.55.17.55h1.1c.07 0 .15 0 .15-.22 0-.45.09-1.32-.59-1.43zm-1.62-.51h-1.72v-.76c0-.08 0-.18.27-.18h1.67c.58 0 .61.08.61.51 0 .2 0 .41-.83.41z" fill="#a0a4a6"/></g></svg>