<svg width="73" height="44" fill="none" xmlns="http://www.w3.org/2000/svg"><path d="M11.0133 19.6533h9.24V29.36c-.0933.0933-.7466 1.0267-2.24 1.96C16.1467 32.44 13.9067 33 11.48 33c-3.08 0-5.9733-1.2133-8.12-3.36C1.2133 27.4933 0 24.5067 0 21.4267v-.56C0 14.6133 5.6 9.2933 12.32 9.2933c2.52 0 4.2933.28 5.7867.9334V12.28c-1.4-.84-3.2667-1.3067-5.7867-1.3067-2.8 0-5.4133 1.0267-7.3733 2.8934-1.96 1.8666-3.08 4.3866-3.08 6.9066v.56c0 2.7067 1.0266 5.1334 2.8 7 1.7733 1.8667 4.2933 2.8 6.9066 2.8 4.1067 0 6.16-1.4933 7-2.3333v-7.3733h-7.4666v-1.7734h-.0934zm1.3067-5.5066c2.8 0 4.3867.4666 5.7867 1.5866v-2.1466c-1.68-.84-3.4534-1.3067-5.7867-1.3067-2.4267 0-4.6667.9333-6.44 2.52-1.7733 1.5867-2.7067 3.7333-2.7067 5.9733v.56c0 4.6667 3.7334 8.4934 8.4 8.4934 3.7334 0 5.32-1.2134 5.6934-1.5867v-5.4133h-6.16V24.6h4.3866v2.7067c-.56.1866-1.7733.6533-4.0133.6533-1.7733 0-3.36-.6533-4.6667-1.96-1.2133-1.2133-1.8666-2.8933-1.8666-4.76v-.56c0-3.4533 3.36-6.5333 7.3733-6.5333zM59.64 5h-1.7733v8.8667c.6533-.56 1.3066-1.0267 1.7733-1.2134V5zm-3.08 9.52V5h-1.7733v11.48c.4666-.6533 1.0266-1.3067 1.7733-1.96zm-25.2933.1867c1.2133 0 2.3333.28 3.2666.84.4667-.56.9334-1.0267 1.2134-1.4-1.0267-.7467-2.7067-1.2134-4.48-1.2134-2.52 0-4.76.9334-6.44 2.52-1.5867 1.5867-2.52 3.92-2.52 6.3467v10.5467H24.08V21.8933c.0933-4.2 2.9867-7.1866 7.1867-7.1866zm11.3866-1.7734c-2.3333 0-4.5733.9334-6.2533 2.6134-1.68 1.68-2.6133 3.92-2.6133 6.2533v1.5867c0 2.3333.9333 4.5733 2.6133 6.2533 1.68 1.68 3.92 2.6133 6.2533 2.6133 1.0267 0 2.0534-.1866 2.7067-.56V29.92c-.84.3733-1.8667.56-2.7067.56-3.8266 0-7.0933-3.2667-7.0933-7.0933V21.8c0-3.8267 3.2667-7.0933 7.0933-7.0933 1.96 0 3.7334.7466 5.04 2.0533 1.3067 1.3067 2.0534 3.1733 2.0534 5.04v10.5467H51.52V21.52c-.0933-2.3333-1.12-4.48-2.8-6.0667-1.4933-1.68-3.7333-2.52-6.0667-2.52zm27.44 2.6134c-1.68-1.68-3.92-2.6134-6.2533-2.6134-1.68 0-3.4533.6534-4.3867 1.3067-1.96 1.3067-3.5466 2.7067-6.5333 6.5333V23.48c2.52-3.2667 4.8533-5.7867 6.6267-7.1867C60.76 15.36 62.3467 14.8 63.84 14.8c3.8267 0 7.0933 3.2667 7.0933 7.0933V23.48c0 1.8667-.7466 3.7333-2.1466 5.04-1.3067 1.3067-3.1734 2.0533-5.04 2.0533-3.1734 0-5.9734-2.1466-6.72-5.1333L55.72 27.0267c.9333 3.08 4.2933 5.4133 8.0267 5.4133 2.3333 0 4.5733-.9333 6.2533-2.6133 1.68-1.68 2.6133-3.92 2.6133-6.2534v-1.5866c.0934-2.52-.84-4.76-2.52-6.44zm-9.24 3.64c.84-.84 1.8667-1.3067 2.8934-1.3067 2.24 0 4.0133 1.7733 4.0133 4.0133V23.48c0 2.24-1.7733 4.0133-4.0133 4.0133-1.12 0-2.1467-.56-2.9867-1.68-.7467-.9333-1.2133-2.24-1.3067-3.36L57.96 24.2267c.28 1.4 1.0267 2.7066 2.0533 3.64 1.0267.9333 2.3334 1.4933 3.64 1.4933 3.1734 0 5.7867-2.6133 5.7867-5.7867v-1.5866c0-1.4934-.6533-2.9867-1.68-4.1067-1.12-1.12-2.52-1.68-4.1067-1.68-.9333 0-2.52.3733-4.2933 1.96-.4667.4667-1.5867 1.5867-2.3333 2.4267-1.12 1.3066-2.8934 3.1733-4.2934 5.1333v2.8c1.5867-2.0533 2.52-3.1733 4.0134-4.9467 1.4933-1.68 3.1733-3.64 4.1066-4.3866zm-29.5866-3.1734c-3.2667 0-5.7867 2.52-5.7867 5.7867v10.5467h1.7733V21.8933c0-2.3333 1.68-4.0133 4.0134-4.0133.6533 0 1.3066.0933 1.7733.3733.1867-.56.4667-1.0266.84-1.5866-.56-.3734-1.7733-.6534-2.6133-.6534zm11.3866 0c-1.4933 0-2.9866.6534-4.1066 1.68-1.12 1.12-1.68 2.52-1.68 4.1067v1.5867c0 3.1733 2.6133 5.7866 5.7866 5.7866.84 0 2.0534-.1866 2.7067-.84v-1.8666c-.7467.56-1.7733.9333-2.7067.9333-2.24 0-4.0133-1.7733-4.0133-4.0133V21.8c0-2.24 1.7733-4.0133 4.0133-4.0133S46.6667 19.56 46.6667 21.8v10.5467h1.8666V21.8933c0-3.2666-2.6133-5.88-5.88-5.88z" fill="#A0A4A6"/></svg>