<svg xmlns="http://www.w3.org/2000/svg" width="124.4" height="44"><g><path fill="none" d="M0 0h124.22v44H0z"/><path d="M36.62 19.93l1.38-.76v2.29h-4.29a.18.18 0 00-.17.17v1.55a.17.17 0 00.17.17h2.39a.12.12 0 01.12.12v1a.12.12 0 010 .1 3.38 3.38 0 01-2.1.74A3.17 3.17 0 0130.88 22a3.17 3.17 0 013.2-3.34 2.92 2.92 0 012.32 1.2.17.17 0 00.22.07zM38 3.55v15.09a4.73 4.73 0 00-3.93-1.89A5.15 5.15 0 0028.66 22a5.16 5.16 0 005.41 5.26 5.61 5.61 0 003.93-1.5v5.11a.34.34 0 01-.34.34H.34a.34.34 0 01-.2-.61L14 20.48v6.45a.16.16 0 00.16.16h5.36a2.67 2.67 0 002.95-2.76A2.53 2.53 0 0021 22a.15.15 0 010-.28 2.31 2.31 0 001.29-2.18 2.62 2.62 0 00-2.92-2.59h-.48L37.46 3.28a.34.34 0 01.54.27zM26.66 17.06a.14.14 0 00-.14-.14h-1.88a.15.15 0 00-.15.14V27a.15.15 0 00.15.14h1.88a.14.14 0 00.14-.14zm22.17 7.81l-1.16-.6a.17.17 0 00-.22.06 2.91 2.91 0 01-2.39 1.35A3.44 3.44 0 0141.68 22a3.42 3.42 0 013.38-3.67 2.88 2.88 0 012.39 1.34.16.16 0 00.22.06l1.15-.63a.17.17 0 00.07-.24 4.35 4.35 0 00-3.83-2.12A5 5 0 0039.92 22a5 5 0 005.14 5.26 4.43 4.43 0 003.84-2.14.17.17 0 00-.07-.25zm-32.55.31h2.65c.8 0 1.29-.42 1.29-1.16a1.16 1.16 0 00-1.29-1.15h-2.65a.16.16 0 00-.16.15v2a.16.16 0 00.16.16zm0-4.22h2.56A1 1 0 0020 19.89a1.07 1.07 0 00-1.18-1.07h-2.54a.17.17 0 00-.16.16v1.82a.16.16 0 00.16.2zm69-4.05H83a.25.25 0 00-.23.15l-2.69 7-2.71-7a.25.25 0 00-.23-.15H75a.12.12 0 00-.11.12V27a.11.11 0 00.11.12h1.5a.12.12 0 00.12-.12v-7.77l3.1 7.8a.08.08 0 00.08 0h.64a.09.09 0 00.08 0l3.08-7.8V27a.12.12 0 00.13.12h1.54a.12.12 0 00.12-.12V17a.13.13 0 00-.12-.09zm17.86 6.4l2.18 3.49a.18.18 0 01-.15.28h-1.64a.18.18 0 01-.16-.09l-2.13-3.62a.19.19 0 00-.16-.09h-1.5a.2.2 0 00-.19.19v3.43a.18.18 0 01-.18.18h-1.42a.18.18 0 01-.18-.18v-9.81a.18.18 0 01.18-.18h4.28a3.1 3.1 0 013.34 3.19 2.85 2.85 0 01-2.17 2.9.19.19 0 00-.11.31zm.45-3.23a1.59 1.59 0 00-1.73-1.6h-2.28a.19.19 0 00-.19.18v2.87a.19.19 0 00.19.18h2.27a1.6 1.6 0 001.73-1.63zm-8.69-3.17h-6.59a.18.18 0 00-.19.19v9.8a.18.18 0 00.19.18h6.59a.18.18 0 00.18-.18v-1.21a.18.18 0 00-.18-.18h-4.81a.18.18 0 01-.19-.18v-2.47a.19.19 0 01.19-.19h4.7a.19.19 0 00.19-.18v-1.2a.2.2 0 00-.19-.19h-4.7a.18.18 0 01-.19-.18v-2.25a.18.18 0 01.19-.19h4.81a.18.18 0 00.18-.18v-1.2a.18.18 0 00-.18-.19zm24.5 1.57h4.82a.18.18 0 00.18-.18v-1.21a.18.18 0 00-.18-.18h-6.6a.18.18 0 00-.18.18v9.81a.18.18 0 00.18.18h6.6a.18.18 0 00.18-.18v-1.21a.18.18 0 00-.18-.18h-4.82a.18.18 0 01-.18-.18v-2.48a.18.18 0 01.18-.18h4.71a.18.18 0 00.18-.18v-1.21a.18.18 0 00-.18-.18h-4.71a.18.18 0 01-.18-.18v-2.26a.18.18 0 01.18-.18zm-3.78 6.35l-1.17-.6a.16.16 0 00-.21.06 2.91 2.91 0 01-2.39 1.35 3.45 3.45 0 01-3.38-3.64 3.42 3.42 0 013.38-3.67 2.88 2.88 0 012.39 1.34.17.17 0 00.22.06l1.15-.63a.17.17 0 00.07-.24 4.33 4.33 0 00-3.83-2.12 5 5 0 00-5.14 5.26 5 5 0 005.14 5.26 4.42 4.42 0 003.84-2.14.17.17 0 00-.07-.29zm-55.83-1.57a4.86 4.86 0 01-4.89 4 5 5 0 01-5-5.26 5 5 0 013.63-5.08c3.67-.99 7.06 2.48 6.26 6.34zM58.15 22c0-2.1-1.28-3.67-3.25-3.67S51.65 19.9 51.65 22s1.27 3.68 3.25 3.68 3.25-1.59 3.25-3.68zm14-5.09h-2.27a.23.23 0 00-.22.15L67 24l-2.72-7a.23.23 0 00-.22-.15H61.8a.12.12 0 00-.12.12V27a.12.12 0 00.12.12h1.54a.12.12 0 00.12-.12v-7.77l3.1 7.8a.09.09 0 00.08 0h.64a.11.11 0 00.09 0l3.08-7.8V27a.12.12 0 00.12.12h1.54a.12.12 0 00.12-.12V17a.12.12 0 00-.12-.09z" fill="#a0a4a6"/></g></svg>