<svg xmlns="http://www.w3.org/2000/svg" width="87.72" height="44"><g><path fill="none" d="M0 0h87.73v44H0z"/><path d="M12.2 13.27a3 3 0 01-1.31 4 3 3 0 111.31-4.07zm3.89-3.35a3.53 3.53 0 00-1-1.37 7.28 7.28 0 00-7.41-1 13 13 0 00-7.22 8.7A15.77 15.77 0 000 18.51s-.06.78 0 .57a2.85 2.85 0 00.22-.64 19.19 19.19 0 012.25-5.12C5 9.71 8.9 7.39 13.06 8.66a9.1 9.1 0 012.15 1.1c.13.09 1.09.85.88.16zm10.13 8.56a3.86 3.86 0 00-1.69-1.77 5.2 5.2 0 00-2.53-.63 5.6 5.6 0 00-2.63.59 6.68 6.68 0 00-2.1 1.86v-.45A2.49 2.49 0 0017 17a1.59 1.59 0 00-1.49-.91 1.58 1.58 0 00-1.24.52 2.26 2.26 0 00-.45 1.55v10.51a2.37 2.37 0 00.5 1.64 1.69 1.69 0 001.31.58 1.74 1.74 0 001.37-.56 2.37 2.37 0 00.5-1.66v-4.55a11.2 11.2 0 01.28-3.05 3.35 3.35 0 011.17-1.6 3 3 0 011.77-.58 2 2 0 012 1 6 6 0 01.51 2.76v6.06a2.37 2.37 0 00.5 1.64 1.64 1.64 0 001.32.56 1.66 1.66 0 001.3-.56 2.42 2.42 0 00.5-1.64V21.9a16.15 16.15 0 00-.1-2 4.13 4.13 0 00-.53-1.42zM7.7 19.8v8.76a2.67 2.67 0 00.56 1.83 1.83 1.83 0 001.42.61 1.86 1.86 0 001.45-.61 2.6 2.6 0 00.52-1.83v-9.62a6.18 6.18 0 01-3.22.9 6 6 0 01-.73-.04zM42.14 11a2.35 2.35 0 01.5 1.55v16.2a2.25 2.25 0 01-.47 1.58l-.07.07a1.72 1.72 0 01-2.42-.09 2.25 2.25 0 01-.48-1.56v-.35a9.14 9.14 0 01-1.47 1.38 5.73 5.73 0 01-1.55.81 4.2 4.2 0 01-.7.17 6.12 6.12 0 01-1.14.11 5.55 5.55 0 01-2.43-.56 5.8 5.8 0 01-1.91-1.6 7.39 7.39 0 01-1.25-2.43 10.63 10.63 0 01-.41-3A8 8 0 0130 17.89 5.58 5.58 0 0134.38 16a8 8 0 011.1.07 5.14 5.14 0 011.58.47 7.32 7.32 0 012 1.7v-5.45a2.4 2.4 0 01.5-1.73 1.49 1.49 0 011.28-.59 1.59 1.59 0 011.3.53zM39 23.37a6.24 6.24 0 00-.47-2.52 3.86 3.86 0 00-1.3-1.61 3 3 0 00-1.7-.57 3 3 0 00-1.8.57 3.6 3.6 0 00-1.23 1.65 6.53 6.53 0 00-.5 2.47 6.2 6.2 0 00.46 2.55 3.49 3.49 0 001.27 1.57 3.23 3.23 0 001.76.52 3.18 3.18 0 001.75-.5 3.44 3.44 0 001.28-1.5 6.32 6.32 0 00.48-2.63zm15.84.85h-7.18a5.32 5.32 0 00.5 2.26 3.52 3.52 0 001.31 1.42 3.28 3.28 0 001.52.48 1.22 1.22 0 00.27 0 4.15 4.15 0 001.21-.16 3.62 3.62 0 001-.47 9.39 9.39 0 001-.71c.29-.25.66-.59 1.12-1a1.26 1.26 0 01.8-.24 1.38 1.38 0 01.91.31 1.08 1.08 0 01.35.86 2.3 2.3 0 01-.39 1.16 5 5 0 01-1.18 1.29 6.88 6.88 0 01-2 1 8.5 8.5 0 01-2.74.4H51a7.14 7.14 0 01-5.12-2 7.54 7.54 0 01-2-5.48 9.37 9.37 0 01.49-3 6.85 6.85 0 011.4-2.39 6.33 6.33 0 012.3-1.52 8.23 8.23 0 012.9-.53h.11a7 7 0 013.68.92 5.91 5.91 0 012.31 2.34 6.17 6.17 0 01.77 2.94c0 .92-.27 1.54-.79 1.8a5.28 5.28 0 01-2.23.32zm-.53-2.1a4.59 4.59 0 00-1-2.86 3.06 3.06 0 00-2.3-.93 3 3 0 00-2.25.94 4.8 4.8 0 00-1.07 2.85zm33.41-9.62v16.22a2.27 2.27 0 01-.54 1.58l-.07.06a1.71 1.71 0 01-2.43-.09 2.31 2.31 0 01-.49-1.56v-.36a8.74 8.74 0 01-1.46 1.39 6.09 6.09 0 01-1.56.81 4.06 4.06 0 01-.69.16 5.67 5.67 0 01-3.57-.45 5.79 5.79 0 01-2-1.59 7.32 7.32 0 01-1.24-2.44 10 10 0 01-.44-3 7.91 7.91 0 011.77-5.4 5.59 5.59 0 014.41-1.92 8 8 0 011.1.07 5.45 5.45 0 011.58.48 7.24 7.24 0 012.13 1.68v-5.43a2.76 2.76 0 01.45-1.7 1.54 1.54 0 011.29-.59 1.57 1.57 0 011.24.58 2.32 2.32 0 01.52 1.5zM84 23.31a6.08 6.08 0 00-.48-2.52 3.8 3.8 0 00-1.28-1.61 3 3 0 00-1.75-.56 3 3 0 00-1.81.57 3.65 3.65 0 00-1.22 1.65 6.32 6.32 0 00-.46 2.47 6.51 6.51 0 00.46 2.55 3.63 3.63 0 001.28 1.57 3.27 3.27 0 003.51 0 3.42 3.42 0 001.27-1.52 6.2 6.2 0 00.48-2.6zm-14.49.91h-7.17a5.32 5.32 0 00.5 2.26 3.52 3.52 0 001.31 1.42 3.28 3.28 0 001.52.48 1.31 1.31 0 00.28 0 4.08 4.08 0 001.2-.16 3.8 3.8 0 001-.47 10.66 10.66 0 001-.71l1.11-1a1.28 1.28 0 01.8-.24 1.36 1.36 0 01.91.31 1.06 1.06 0 01.36.86 2.4 2.4 0 01-.39 1.16 5 5 0 01-1.18 1.29 6.94 6.94 0 01-2 1 8.5 8.5 0 01-2.74.4h-.38a7.14 7.14 0 01-5.12-2 7.54 7.54 0 01-2-5.48 9.37 9.37 0 01.49-3 6.85 6.85 0 011.4-2.39 6.33 6.33 0 012.3-1.52 8.42 8.42 0 012.9-.54h.1a7.1 7.1 0 013.69.92 5.93 5.93 0 012.31 2.35 6.17 6.17 0 01.77 2.94c0 .92-.27 1.54-.79 1.8a5.28 5.28 0 01-2.19.32zm-.51-2.1a4.65 4.65 0 00-1-2.86 3.07 3.07 0 00-2.31-.93 3 3 0 00-2.25.94 4.8 4.8 0 00-1.07 2.85z" fill="#a0a4a6"/></g></svg>