<svg xmlns="http://www.w3.org/2000/svg" width="89.49" height="44"><g><path fill="none" d="M0 0h89.49v44H0z"/><path d="M34.29 27l-3.37-9.21H30v-8A2.72 2.72 0 0027.28 7H2.72A2.72 2.72 0 000 9.72v24.56A2.72 2.72 0 002.72 37h24.56A2.72 2.72 0 0030 34.28V23.05l3 7.33h2.59l5.11-12.62h-3zM10 12.83a1.81 1.81 0 11-1.84 1.8 1.81 1.81 0 011.84-1.8zM22.29 30.1a2.46 2.46 0 01-2.75-2.61 4.63 4.63 0 01.19-1.35l.88-3.14a3.16 3.16 0 00.14-1 1.51 1.51 0 00-1.62-1.64c-1.26 0-2.1.91-2.53 2.66l-1.73 6.92h-3l.54-2.18a4.29 4.29 0 01-3.64 2.36 2.41 2.41 0 01-2.69-2.64 6.06 6.06 0 01.16-1.36l1.36-5.63H5.47l.65-2.38h5.12l-2 8A4.79 4.79 0 009 27.36c0 .51.25.66.65.75a3.36 3.36 0 003.19-2.3l1.33-5.32h-2.12l.64-2.38h4.61l-.59 2.71c.8-1.51 2.42-2.95 4-2.95s3.1 1.21 3.1 3.53a7.06 7.06 0 01-.29 2l-.86 3.09a3.25 3.25 0 00-.14.84c0 .54.21.81.62.81s.92-.3 1.51-1.94l1.18.46c-.68 2.42-1.96 3.44-3.54 3.44zm19.83-12.34H45v12.53h-2.88zm47.37 4.56v8h-2.87v-7.15c0-2-1-3.06-2.69-3.06a2.78 2.78 0 00-2.82 3.11v7.07h-2.87V17.76h2.87v1.95A4.51 4.51 0 0185 17.5c2.85 0 4.49 1.9 4.49 4.82zM69.84 17.5a6.56 6.56 0 00-6.69 6.57 6.48 6.48 0 006.64 6.5 6.54 6.54 0 100-13.07zm0 10.58A3.87 3.87 0 0166 24a3.77 3.77 0 013.77-4 3.89 3.89 0 013.85 4.06 3.77 3.77 0 01-3.78 4.02zM58.4 17.76h2.87v12.53H58.4zm-1.9 8.78v.05c0 2.63-2 3.94-4.65 3.94a8.8 8.8 0 01-5.28-1.86 2.22 2.22 0 012.74-1.06 6.26 6.26 0 002.62.64c1.23 0 1.94-.52 1.94-1.35 0-1-1.33-1.31-2.8-1.76-1.85-.52-3.92-1.28-3.92-3.67v-.05c0-2.38 2-3.82 4.47-3.82a8.67 8.67 0 014.6 1.4 2.32 2.32 0 01-2.71 1.27l-.16-.06a5.55 5.55 0 00-1.79-.35c-1.11 0-1.75.53-1.75 1.26v.05c0 .9 1.35 1.28 2.82 1.76 1.81.53 3.87 1.36 3.87 3.61z" fill="#a0a4a6"/></g></svg>