<svg width="170" height="55" fill="none" xmlns="http://www.w3.org/2000/svg"><g clip-path="url(#clip0)"><path d="M37.8623 33.5c0 .25 0 .625-.125 1.125s-.375.875-.5 1-.375.25-.625.125c-1-.25-4.5-1.25-9.5-1.75-1-.125-1.875.125-2.75.5l-4.125 2.375c-.375.25-.75.25-1.125.25s-.75-.125-1.125-.25l-4.125-2.375c-.875-.5-1.75-.625-2.75-.5-5 .625-8.5 1.5-9.5 1.75-.25 0-.5 0-.625-.125-.125-.25-.375-.5-.5-1V33.5c0-.25.125-.375.375-.5 1.625-.5 8.75-2.375 18.25-2.375S35.7373 32.5 37.3623 33c.25.125.5.375.5.5zm14.125-7.25c-.875-.25-1.25-.5-2-.625-.75-.25-1.875-.875-1.875-2s.75-1.75 2.25-1.75c1.375 0 2.125.625 2.625 1.75.125.125.25.25.375.125l2.25-1.25c.125-.125.125-.25.125-.375-.625-1.625-2.125-3.375-5.25-3.375-3.5 0-5.625 2-5.625 4.75s1.75 4.125 4.125 4.875c.875.25 1.25.375 2 .625 1.375.5 2.125 1.125 2.125 2s-.5 1.875-2.75 1.875c-2 0-2.75-1.125-3.125-2.125 0-.125-.25-.25-.375-.125L44.4873 32c-.125.125-.125.25-.125.375.875 2.25 3.375 3.5 6.125 3.5 3.25 0 6-1.625 6-5s-3.625-4.375-4.5-4.625zm-43 2.375c.375.25.875.25 1.25.125s.75-.375 1-.75.25-.875.125-1.25-.375-.75-.75-1l-6.375-3.625c-.25-.125-.5-.125-.625 0-.25.125-.5.5-.75 1s-.375.875-.5 1.25c0 .25.125.5.25.625l6.375 3.625zm3.375-4.5c.25.375.625.625 1 .75s.875 0 1.25-.125c.375-.25.625-.625.75-1s0-.875-.125-1.25l-3.625-6.375c-.125-.25-.375-.25-.625-.25s-.75.125-1.25.5c-.5.25-.875.5-1 .75-.125.125-.125.375 0 .625l3.625 6.375zm14.625 2.625c-.125.375 0 .875.125 1.25.25.375.625.625 1 .75s.875 0 1.25-.125L35.7373 25c.125-.125.25-.375.25-.625s-.125-.75-.5-1.25c-.25-.5-.5-.875-.75-1-.125-.125-.375-.125-.625 0l-6.375 3.625c-.375.25-.625.625-.75 1zm42.875 5.875c-.125-.125-.25-.125-.375-.125-1 .75-2.25.75-3.25-.625-.75-1.25-1.75-2.75-1.75-2.75L68.6123 24c.125-.125 0-.5-.25-.5h-3.25c-.125 0-.125 0-.25.125l-3.5 4.875v-9.75c0-.125-.125-.25-.25-.25h-2.75c-.125 0-.25.125-.25.25V35.5c0 .125.125.25.25.25h2.75c.125 0 .25-.125.25-.25V30s1.75 2.875 2.5 3.875c.875 1.5 2.25 2 3.625 2s2.25-.375 3.25-1.375c.125-.125.125-.25 0-.375l-.875-1.5zm-46.125-8c.375.25.875.25 1.25.125s.75-.375 1-.75l3.625-6.375c.125-.25.125-.5 0-.625-.125-.25-.5-.5-1-.75s-.875-.375-1.25-.5c-.25 0-.5 0-.625.25l-3.625 6.5c-.25.375-.25.875-.125 1.25s.375.75.75.875zm-4.625-1.125c.5 0 .875-.125 1.125-.5.25-.25.5-.75.5-1.125V14.5c0-.25-.125-.375-.375-.5s-.75-.25-1.25-.25-1 .125-1.25.25-.375.25-.375.5v7.375c0 .5.125.875.5 1.125s.75.5 1.125.5zm63.375.125h-3c-.125 0-.25 0-.25.125l-3 7.75-3-7.75c0-.125-.125-.125-.25-.125h-3c-.25 0-.375.25-.25.375l5 11-2.5 6c-.125.125 0 .375.25.375h2.625c.125 0 .25-.125.25-.125l7.5-17.125c0-.375-.125-.5-.375-.5zm76.7497 1.5c.875.875 1.875 2.25 1.875 5.125 0 .125-.125.25-.25.25h-9.625c0 .75.375 1.375 1.125 2s1.75.875 2.875.875c.875 0 2.125-.25 3-1.25.125-.125.25-.125.375 0l1.875 1.125c.125.125.125.25.125.375-1.375 1.625-3.25 2.375-5.625 2.375s-4.125-.75-5.125-1.75-1.875-2.375-1.875-4.5.875-3.5 1.875-4.5c1.125-1.125 2.75-1.875 4.75-1.875 2.125-.125 3.75.75 4.625 1.75zm-1.375 3.375c-.25-1.625-1.625-2.625-3.25-2.625-1.5 0-2.875.75-3.375 2.625h6.625zm-29.875-5.125c-2 0-3.25 1-3.875 2.125v-1.625c0-.125-.125-.25-.25-.25h-2.75c-.125 0-.25.125-.25.25V35.5c0 .125.125.25.25.25h2.75c.125 0 .25-.125.25-.25v-6c0-1.625.75-3.375 2.75-3.375s2.25 2 2.25 3.125v6.375c0 .125.125.25.25.25h2.75c.125 0 .25-.125.25-.25V29.25c0-4.875-2.25-5.875-4.375-5.875zm42.125 0c-1.5-.375-3.5.5-4.125 2.875v-2.375c0-.125-.125-.25-.25-.25h-2.625c-.125 0-.25.125-.25.25V35.5c0 .125.125.25.25.25h2.75c.125 0 .25-.125.25-.25v-5.875c0-2.125 1.125-3.625 3.875-3 .125 0 .375-.125.375-.25V23.75c0-.25-.125-.375-.25-.375zm-28.25 0c-2 0-3.25 1-3.875 2.125v-1.625c0-.125-.125-.25-.25-.25h-2.75c-.125 0-.25.125-.25.25V35.5c0 .125.125.25.25.25h2.75c.125 0 .25-.125.25-.25v-6c0-1.625.75-3.375 2.75-3.375s2.25 2 2.25 3.125v6.375c0 .125.125.25.25.25h2.75c.125 0 .25-.125.25-.25V29.25c0-4.875-2.25-5.875-4.375-5.875zM89.2373 28.75c-.875-.375-1.125-.375-1.75-.625s-1.25-.625-1.25-1.125.5-1.125 1.5-1.125c.875 0 1.375.375 1.625.875.125.125.25.125.375.125l1.875-1.125c.125-.125.125-.25.125-.375-.5-.875-1.5-2.125-4-2.125-3 0-4.625 1.75-4.625 3.75s1.625 2.875 3 3.375c1.625.625 1.75.75 2 .75.5.25 1.125.5 1.125 1.125s-.625 1.125-1.75 1.125c-1 0-2-.375-2.5-1.5 0-.125-.25-.25-.375-.125l-1.875 1.125c-.125.125-.125.25-.125.375.5 1.5 2.25 2.75 4.875 2.75 2.875 0 4.875-1.5 4.875-3.75 0-2.125-1.5-2.875-3.125-3.5zm14.3747 3.5c-.125-.125-.25-.125-.375-.125-.75.5-1.75 1-3 1-1.3747 0-3.7497-.75-3.7497-3.375s2.375-3.375 3.7497-3.375c1.25 0 2.125.375 3 1 .125.125.375 0 .375-.125l1.125-2c.125-.125 0-.25-.125-.375-1.125-.75-2.625-1.5-4.5-1.5-1.8747 0-3.7497.5-4.9997 1.75s-1.875 2.75-1.875 4.625c0 2.125.875 3.5 1.875 4.5s2.75 1.75 4.9997 1.75c2 0 3.5-.875 4.5-1.5.125-.125.125-.25.125-.375l-1.125-1.875zm14.75-8.375V35.5c0 .125-.125.25-.25.25h-2.75c-.125 0-.25-.125-.25-.25V34c-.625.875-1.875 2.125-3.875 2.125-4 0-6-3-6-6.375 0-4.375 3-6.25 5.875-6.25 1.875 0 3.25.875 4 2V24c0-.125.125-.25.25-.25h2.75c.125-.125.25 0 .25.125zm-3.125 5.875c0-2.125-1.25-3.75-3.5-3.75-2.125 0-3.25 1.625-3.25 3.625 0 2.125 1.25 3.75 3.375 3.75s3.375-1.5 3.375-3.625z" fill="#A0A4A6"/></g><defs><clipPath id="clip0"><path d="M0 0h169.863v55H0V0z" fill="#fff"/></clipPath></defs></svg>