<svg xmlns="http://www.w3.org/2000/svg" width="58.35" height="44"><g><path fill="none" d="M0 0h58.32v44H0z"/><path d="M58.35 13.58v3.24H54v4.39c0 4.87 0 5 .83 5.42a4.88 4.88 0 002.94-.13c.55-.3.57-.23.53 1.55v1.41l-.81.34a5.53 5.53 0 01-2.58.33c-1.64 0-1.79 0-2.52-.37a3.74 3.74 0 01-1.91-2.13c-.29-.74-.29-.79-.33-9.51v-9c0-.15.47-.12 1.95-.12h1.86V13.53h4.32zm-32 9.59h-6l.14.5a4.73 4.73 0 002.52 3.14 4 4 0 002.11.35 3.84 3.84 0 002.16-.38 9.25 9.25 0 001.52-.93l.71-.54.5.43c.29.24.79.69 1.11 1l.6.54-.88.85A8.37 8.37 0 0125 30.34a8.26 8.26 0 01-8.39-9 8.42 8.42 0 012.46-5.83 7.65 7.65 0 013.85-2.13 7.49 7.49 0 019 5 12.44 12.44 0 01.59 4.29l-.09.5zm-1.83-2.56c4 0 4.21 0 4.14-.25s-.11-.44-.15-.7a5.77 5.77 0 00-1.08-2.14 3.73 3.73 0 00-1-.75c-2.6-1.27-5.3.27-6 3.39l-.09.45zm-9.77-7h-2l-.7 2c-.38 1.11-1.31 3.79-2.07 6s-1.42 4-1.47 4a1 1 0 01-.15-.61c-.08-.23-1.11-2.91-2.27-6L4 13.58H2c-1.57 0-2 0-2 .16s1.58 3.78 3.41 8.19C7.06 30.67 6.88 30.08 6.1 31s-1.63 1-3 .55a3.47 3.47 0 00-.86-.24A14.14 14.14 0 001.08 34a4 4 0 001.28.58 6.4 6.4 0 002.4.39 7.72 7.72 0 001.78-.18 5.58 5.58 0 003.21-3.19c.31-.64 6.79-17.3 6.93-17.82.07-.19-.08-.2-1.89-.2zm24.64 4l-2.91-4h-2.03c-1.61 0-2 0-2 .16s1.37 1.92 2.92 4 2.81 3.92 2.81 4-1.27 1.86-2.81 4-2.86 3.94-2.92 4 .36.17 2 .17h2.07l2.91-4c1.6-2.21 2.91-4.07 2.91-4.17s-1.34-1.98-2.91-4.18zm6.87-4h-2.03l-1.48 2-1.47 2 .41.55a18.85 18.85 0 001.66 2.25c.07 0 4.67-6.3 4.91-6.69.09-.12-.26-.14-1.96-.14zM43.35 23a6.1 6.1 0 00-.66.85c-.34.46-.79 1.09-1 1.41l-.41.55 1.47 2 1.48 2h2.07c1.71 0 2.05 0 2-.19-.3-.3-4.88-6.62-4.95-6.62z" fill="#a0a4a6"/></g></svg>