<svg xmlns="http://www.w3.org/2000/svg" width="55.55" height="44"><g><path fill="none" d="M0 0h55.55v44H0z"/><path d="M55 29.29a2.1 2.1 0 01-.28 2.89 2.28 2.28 0 01-3-.28l-4.86-6.22-4.76 6.08a2.13 2.13 0 01-3 .28 2 2 0 01-.49-2.83l.07-.07 5.57-7.21-5.57-7.2a2.17 2.17 0 113.45-2.62l4.73 6.22 4.86-5.94a2.13 2.13 0 113.46 2.48L55 15l-5.43 7.07zM40.48 22a10.67 10.67 0 01-10.79 10.6 10.86 10.86 0 01-9.45-5.73 11 11 0 01-9.59 5.73A10.6 10.6 0 010 22.22V4.69a2.13 2.13 0 012.19-2.05 2.05 2.05 0 012 2.05v8.9a11.64 11.64 0 016.56-2.05 10.75 10.75 0 019.59 5.59 10.73 10.73 0 019.38-5.59A10.54 10.54 0 0140.48 22zm-23.27.07a6.49 6.49 0 00-13 0v.14a6.39 6.39 0 006.49 6.29h.14a6.53 6.53 0 006.37-6.42zm19.11 0a6.49 6.49 0 00-13 0v.14a6.4 6.4 0 006.49 6.29 6.7 6.7 0 006.51-6.42z" fill="#a0a4a6"/></g></svg>