<svg width="97" height="44" fill="none" xmlns="http://www.w3.org/2000/svg"><g clip-path="url(#clip0)"><path d="M13.9602 30.8c1.3 0 2.6-.3 3.7-.9-1.9 1.9-4.6 3.1-7.5 3.1-5.8 0-10.5-4.7-10.5-10.6v-9h6v9.2c.1 4.6 3.8 8.2 8.3 8.2zm50.3-1.4h2.5v-9.7h-2.5v9.7zm1.2-14c-.8 0-1.4.6-1.4 1.4 0 .8.6 1.4 1.4 1.4.8 0 1.4-.6 1.4-1.4 0-.8-.6-1.4-1.4-1.4zm29.8 4.9c-.6-.6-1.5-.9-2.5-.9-1.5 0-2.6.6-3.4 1.8v-5.5h-2.5v13.7h2.5v-4.9c0-.8.2-1.5.7-2 .4-.5 1-.8 1.7-.8.6 0 1.1.2 1.5.5.3.4.5.9.5 1.5v5.6h2.5v-6.6c0-1-.4-1.8-1-2.4zm-12.9 6.6c-.4.3-.9.5-1.5.5-.8 0-1.4-.3-1.9-.8s-.7-1.2-.7-2.1c0-.8.2-1.5.7-2 .5-.5 1.1-.8 1.8-.8 1.1 0 1.9.6 2.5 1.7l2-1.3c-.3-.8-.9-1.5-1.7-2-.8-.5-1.7-.7-2.8-.7-1.4 0-2.6.5-3.6 1.4-1 1-1.5 2.2-1.5 3.7s.5 2.8 1.5 3.7c1 .9 2.2 1.4 3.7 1.4 2.1 0 3.6-.9 4.6-2.8l-2-1.3c-.4.6-.7 1.1-1.1 1.4zm-8.6.5c-.8 0-1.2-.5-1.2-1.4v-4.4h2.1v-2h-2.1V17h-2.5v2.6h-1.5v2h1.5v4.9c0 2.1 1 3.1 3.1 3.1.6 0 1.1-.1 1.6-.3l-.2-2c-.3.1-.6.1-.8.1zm-60.1-11.8h1.2v6.8c0 2.5-2.1 4.6-4.6 4.6-.5 0-1-.1-1.5-.3 1.3 1.5 3.2 2.5 5.3 2.5 3.7 0 6.6-2.9 6.8-6.5v-7.2h1.2l-4.2-4.5-4.2 4.6zm19.4 9c0 .8-.2 1.4-.6 1.9-.4.5-1 .7-1.6.7-1.3 0-2-.7-2-2.2v-5.5h-2.5v6c0 1.2.4 2.2 1.1 2.8.7.7 1.6 1.1 2.6 1.1 1.4 0 2.4-.4 3.1-1.6v1.3h2.5v-9.7h-2.5v5.2h-.1zm10.5-3.4c-1.2-.2-2-.5-2.5-.9-.5-.3-.8-.8-.8-1.3s.2-.8.7-1.1c.4-.2 1-.4 1.6-.4 1.6 0 2.7.8 3.2 2.4l2-1.2c-.9-2.4-2.6-3.5-5.2-3.5-1.4 0-2.6.3-3.5 1-.9.7-1.3 1.6-1.3 2.7s.4 2 1.2 2.7c.8.7 1.8 1.2 3.1 1.4 1.2.2 2.1.5 2.6.9.5.3.8.8.8 1.4 0 .5-.2 1-.7 1.3-.5.3-1.1.5-1.8.5-1.9 0-3.1-1.1-3.5-3.3l-2.3 1.1c.3 1.3.9 2.4 1.9 3.2 1 .8 2.3 1.2 3.9 1.2 1.5 0 2.8-.4 3.7-1.2.9-.8 1.4-1.8 1.4-3 0-1.1-.4-2.1-1.1-2.7-.8-.4-1.9-.9-3.4-1.2zm15.1 4.9l-1.7-6.5h-2.4l-1.7 6.5-1.6-6.5h-2.4l2.7 9.7h2.4l1.8-6.7 1.8 6.7h2.4l2.7-9.7h-2.4l-1.6 6.5z" fill="#A0A4A6"/></g><defs><clipPath id="clip0"><path d="M.1406 0h96.56v44H.1406V0z" fill="#fff"/></clipPath></defs></svg>