<svg xmlns="http://www.w3.org/2000/svg" width="110.27" height="44"><g><path fill="none" d="M0 0h110.27v44H0z"/><path d="M53.36 20.23V30a.24.24 0 01-.24.24h-2.25a.24.24 0 01-.24-.24v-9.77a.25.25 0 01.24-.25h2.25a.25.25 0 01.24.25zm56.91 4.91v.3a.24.24 0 01-.24.24h-7.16a.25.25 0 00-.24.28 2.54 2.54 0 00.87 1.55 3 3 0 002 .66 4.16 4.16 0 002.86-1.17.24.24 0 01.36 0l1.09 1.57a.24.24 0 010 .32 7.87 7.87 0 01-1.81 1.18 5.63 5.63 0 01-2.51.52 6.05 6.05 0 01-2.92-.67 4.82 4.82 0 01-1.93-1.92 5.74 5.74 0 01-.69-2.86 5.89 5.89 0 01.67-2.86 4.76 4.76 0 011.86-1.94 5.57 5.57 0 012.81-.69 4.75 4.75 0 013.71 1.43 5.85 5.85 0 011.27 4.06zm-2.79-1.5a2 2 0 00-.67-1.24 2.41 2.41 0 00-1.66-.55 2.67 2.67 0 00-1.68.51 2.2 2.2 0 00-.75 1.26.24.24 0 00.24.3h4.28a.24.24 0 00.24-.28zM52 14.7a1.67 1.67 0 101.66 1.66A1.67 1.67 0 0052 14.7zm-2.36 15.23a.24.24 0 01-.23.33h-2.63a.22.22 0 01-.22-.16l-1.2-3.22a.26.26 0 00-.23-.16h-6.07a.24.24 0 00-.22.16l-1.2 3.22a.23.23 0 01-.23.16h-2.63a.24.24 0 01-.22-.33l6-15.09a.25.25 0 01.23-.15h2.52a.23.23 0 01.22.15zm-5.39-6.11l-1.92-5.18a.25.25 0 00-.46 0L40 23.82a.24.24 0 00.23.32H44a.24.24 0 00.25-.32zm37.25-3.59V30a.24.24 0 01-.24.24H79a.24.24 0 01-.24-.24v-1.19h-.05a3.54 3.54 0 01-1.37 1.32 4.22 4.22 0 01-2.05.46 4.91 4.91 0 01-2.46-.59A4.6 4.6 0 0171 28.07a6.3 6.3 0 01-.65-2.95 6.25 6.25 0 01.65-2.94 4.54 4.54 0 011.8-1.88 4.92 4.92 0 012.49-.65 4.22 4.22 0 012.05.47 3.59 3.59 0 011.37 1.31h.05v-1.2A.25.25 0 0179 20h2.23a.25.25 0 01.27.23zm-2.71 4.89A2.91 2.91 0 0078 23a2.94 2.94 0 00-4 0 2.91 2.91 0 00-.76 2.09 2.89 2.89 0 00.76 2.12 2.94 2.94 0 004 0 2.9 2.9 0 00.79-2.09zm-19.47-4.8a3.66 3.66 0 00-1.27 1.84v-1.93a.25.25 0 00-.25-.25h-2.2a.25.25 0 00-.24.25V30a.24.24 0 00.24.24h2.23A.24.24 0 0058 30v-4a3.71 3.71 0 01.78-2.65 3.3 3.3 0 012.45-.8h.06a.25.25 0 00.25-.24v-2.7h-.11a3.49 3.49 0 00-2.11.71zm34.4 1.86a6.14 6.14 0 01.66 2.94 6.18 6.18 0 01-.66 2.95A4.58 4.58 0 0191.93 30a5 5 0 01-2.49.64 4.26 4.26 0 01-2.06-.46A3.61 3.61 0 0186 28.81V30a.24.24 0 01-.24.24h-2.28a.25.25 0 01-.25-.24V14.93a.25.25 0 01.25-.24h2.25a.24.24 0 01.24.24v6.5a3.66 3.66 0 011.37-1.31 4.26 4.26 0 012.06-.47 5 5 0 012.49.65 4.52 4.52 0 011.83 1.88zm-2.19 2.94a2.91 2.91 0 00-.77-2.12 2.93 2.93 0 00-4 0 3.22 3.22 0 000 4.18 2.93 2.93 0 004 0 2.9 2.9 0 00.77-2.06zm6.64-10.43h-2.25a.24.24 0 00-.24.24V30a.24.24 0 00.24.24h2.25a.24.24 0 00.24-.24V14.93a.24.24 0 00-.24-.24zM69.34 20h-1.62a.23.23 0 01-.24-.24v-3.65a.25.25 0 00-.25-.24H65a.24.24 0 00-.24.24v3.63a.24.24 0 01-.24.24h-1.43a.25.25 0 00-.24.25V22a.25.25 0 00.24.25h1.41a.24.24 0 01.24.24v4.72a3.06 3.06 0 00.8 2.28 3.18 3.18 0 002.29.76h1A.24.24 0 0069 30v-2a.24.24 0 00-.24-.24h-.23a1.08 1.08 0 01-.84-.27 1.32 1.32 0 01-.24-.89v-4.08a.23.23 0 01.24-.24h1.62a.25.25 0 00.25-.25v-1.8a.25.25 0 00-.22-.23zm-42.8-3.92a.72.72 0 000-1.33L15.86 10.3a4 4 0 00-3 0L2.11 14.73a.72.72 0 000 1.33l10.75 4.26a4 4 0 002.93 0zm1.17 1.27L15.74 22a.71.71 0 00-.45.66v10.62a.72.72 0 001 .67l12-4.65a.71.71 0 00.45-.66V18a.72.72 0 00-1.03-.67zm-15.28 4.53L1.06 17.37a.81.81 0 00-.65.05 1.24 1.24 0 00-.18.14A.69.69 0 000 18v10a.76.76 0 001.08.64l7.5-3.59.36-.17 3.55-1.72a.71.71 0 00-.06-1.28z" fill="#a0a4a6"/></g></svg>