<svg width="71" height="47" fill="none" xmlns="http://www.w3.org/2000/svg"><path d="M70.6078 15.2115L56.9502 46.707H54.477l-9.1051-21.4055-8.9737 21.4055h-2.517L21.9309 19.0418l-6.1722 6.8287 8.7767 20.8365h-6.588l-6.6537-15.7149-4.7713 4.7495V46.707H0V0h6.5224v26.8117l11.622-11.6002h8.6673L35.085 34.319l8.0326-19.1075h4.5963l7.9669 19.1075 8.2295-19.1075h6.6975zm-5.056 29.7008l.4378 1.1162h-.3502l-.4378-1.0505h-.4158v1.0505h-.3283v-2.3638h.5909c.4816 0 .7661.2627.7661.6567.0219.2407-.0219.3939-.2627.5909zm-.0656-.5909c0-.2189-.1532-.3502-.4596-.3502h-.2189v.7441h.2189c.3501-.0219.4596-.197.4596-.3939zm1.8166.5034c0 1.1819-.963 2.1449-2.1449 2.1449-1.1819 0-2.145-.963-2.145-2.1449 0-1.1819.9631-2.145 2.145-2.145 1.1819 0 2.1449.9631 2.1449 2.145zm-.2845 0c0-1.0287-.8536-1.8823-1.8604-1.8823-1.0287 0-1.8823.8536-1.8823 1.8823 0 1.0287.8536 1.8604 1.8823 1.8604 1.0287 0 1.8604-.8317 1.8604-1.8604z" fill="#121C21"/></svg>