<svg xmlns="http://www.w3.org/2000/svg" width="99" height="44"><g><path fill="none" d="M0 0h99v44H0z"/><path d="M62.35 19.76c0-1 0-2.18-1.22-2.84a6.82 6.82 0 00-3.25-.6 14.85 14.85 0 00-4.58.7.44.44 0 00-.34.43v.06l.2 1a.4.4 0 00.38.3h.12l.34-.09a14.88 14.88 0 013.68-.56 5.17 5.17 0 011.9.25c.65.26.65.69.66 1.41v1.09h-.39a23 23 0 00-3.55.26c-2.14.33-3.9.86-3.89 3.88 0 3.83 3.47 3.83 5.14 3.84a14.33 14.33 0 002.85-.32c1.56-.37 2-.88 1.94-2.46zm-2.08 7a8.62 8.62 0 01-2.69.41c-1.53 0-3-.19-3-2.19 0-1.59.84-1.79 1.89-2h.07a29.53 29.53 0 013.76-.25zm14.08-7v8.41a.5.5 0 01-.5.5h-1.06a.49.49 0 01-.5-.51v-8.27c0-1.39-.43-1.77-1.89-1.79a16 16 0 00-3.87.58v9.43a.48.48 0 01-.48.51H65a.5.5 0 01-.5-.51v-9.22a1.54 1.54 0 011.25-1.83 17.36 17.36 0 014.73-.74c2.7 0 3.87 1.02 3.87 3.38zm12.22-7c0-.22-.1-.46-.37-.47h-.07l-1.19.31c-.37.07-.45.28-.44.44v3.69a11.27 11.27 0 00-2.92-.35c-3.8 0-5.21 1.71-5.22 6.28 0 4 .89 6.3 5.35 6.31a11.49 11.49 0 003.21-.42h.13a1.62 1.62 0 001.5-1.93zm-2.06 14.01a10.37 10.37 0 01-2.73.38c-2 0-3.26-.26-3.29-4.53 0-3.9 1-4.53 3.27-4.55a11 11 0 012.74.36zm-33.38 1.49a.38.38 0 01-.08.24 1.79 1.79 0 01-1.24.33 2.17 2.17 0 01-2.34-2.46V13a.42.42 0 01.4-.44l1.19-.31h.07a.43.43 0 01.39.47v13.62c0 .64.37.71.81.73h.32a.32.32 0 01.3.31zm42.59-12c-4.82 0-5.23 3.26-5.24 6.31s.41 6.27 5.24 6.28S99 25.67 99 22.62s-.45-6.3-5.28-6.31zm0 10.81c-2.92 0-3.07-1.55-3.09-4.5s.16-4.51 3.09-4.53 3.08 1.57 3.1 4.53-.17 4.54-3.1 4.55zM45 19.76c0-1 0-2.18-1.22-2.84a6.78 6.78 0 00-3.24-.6A14.93 14.93 0 0036 17a.48.48 0 00-.34.43v.05l.2 1a.41.41 0 00.38.3h.13l.33-.08a14.82 14.82 0 013.68-.57 5 5 0 011.91.26c.65.25.65.68.66 1.4v1.08h-.4a23 23 0 00-3.55.26c-2.14.34-3.91.86-3.89 3.88 0 3.83 3.47 3.84 5.14 3.84a13.62 13.62 0 002.85-.32c1.56-.37 1.95-.87 1.94-2.45zm-2.07 7a8.44 8.44 0 01-2.7.42c-1.53 0-3-.19-3-2.19 0-1.6.84-1.79 1.89-2h.08a26.07 26.07 0 013.8-.3zm-9.42.6v.76a.5.5 0 01-.51.5h-8.48a.49.49 0 01-.5-.51V27a.77.77 0 01.23-.58L31 18.39h-6.61a.5.5 0 01-.5-.52v-.75a.51.51 0 01.5-.52H33a.49.49 0 01.5.52v1.09a.86.86 0 01-.21.54l-6.79 8.09H33a.49.49 0 01.54.51zM18 19.84A3.51 3.51 0 0119 22a3.58 3.58 0 01-1 2.15 21.69 21.69 0 01-5.91 5 21.14 21.14 0 01-7.18 2.75 3.35 3.35 0 01-2.31-.2 3.52 3.52 0 01-1.33-1.95A22.71 22.71 0 010 22a22.67 22.67 0 011.27-7.75A3.52 3.52 0 012.6 12.3a3.29 3.29 0 012.31-.21 21.24 21.24 0 017.18 2.74 21.69 21.69 0 015.91 5z" fill="#a0a4a6"/></g></svg>