<svg xmlns="http://www.w3.org/2000/svg" width="52.06" height="44"><g><path fill="none" d="M0 0h52.06v44H0z"/><path d="M19.21 11.11H27V29a11.81 11.81 0 01-2.81 8.25A10.55 10.55 0 0116 41a11.4 11.4 0 01-4.25-.83 16 16 0 01-2.68-1.37v-6.53a16.36 16.36 0 002.67 1.24 9.59 9.59 0 002.74.69c2.47 0 4.12-1.38 4.87-4.2a7.17 7.17 0 01-3.91 1.17A5.86 5.86 0 0110.78 29 8 8 0 019 23.68V11.11h7.82v10.65c0 1.24.13 1.78 1.16 1.78s1.1-.68 1.1-2V11.11zm30.1 11.47a5.93 5.93 0 01-.75-3.36h2.74v-8.11h-2.6c-.48-3-2.34-7.56-9.05-8.11h-1.44c-.48 0-1.24.07-1.24.07-9.25.89-8.64 10.86-8.64 10.86v17.45c5.08 0 7.61-2.41 7.61-5.77v-2.27h3.71v-7.56h-3.77v-1.1a4.47 4.47 0 01.82-2.75 3 3 0 012.19-1c.62 0 1.78.21 2 1.1v8a12.69 12.69 0 001.71 7 10.16 10.16 0 003.71 3.3 10.06 10.06 0 004.86 1.23h.9v-8.1c-1.59.02-2.28-.26-2.76-.88zm-38.8 8.11a9 9 0 01-.89-.82 8.09 8.09 0 01-1.79-5.43V3.55H0v20.89a7.79 7.79 0 001.8 5.43A5.89 5.89 0 006.46 32a9.09 9.09 0 001.37-.14 9.57 9.57 0 002.68-1.17z" fill="#a0a4a6"/></g></svg>