<svg xmlns="http://www.w3.org/2000/svg" width="100.17" height="44"><g><path fill="none" d="M0 0h100.17v44H0z"/><path d="M10.07 10.64a4.42 4.42 0 00-1.37.23 1 1 0 01-.64 0 4.42 4.42 0 00-1.37-.23c-2.59 0-4.78 2.59-4.78 5.66 0 3.42 2.61 6.43 6.35 7.34h.24c3.74-.91 6.35-3.92 6.35-7.34 0-3.07-2.19-5.66-4.78-5.66zm3 5.33a2.39 2.39 0 01-.93 1.08 2.42 2.42 0 01-1.21.37.35.35 0 01-.35-.33.34.34 0 01.33-.34 1.65 1.65 0 00.87-.27 1.67 1.67 0 00.67-.79.61.61 0 000-.6.65.65 0 00-.5-.31 1.41 1.41 0 00-1.13.41 3.63 3.63 0 00-.76 1.7c-.06.31-.9 3.69-1.22 5.11a.47.47 0 01-.46.36.47.47 0 01-.46-.36l-.12-.5c-.36-1.55-1-4.28-1.07-4.56A3.63 3.63 0 006 15.19a1.4 1.4 0 00-1.12-.41.65.65 0 00-.51.31.61.61 0 000 .6 1.67 1.67 0 00.67.79 1.65 1.65 0 00.87.27.34.34 0 01.33.34.34.34 0 01-.35.33 2.42 2.42 0 01-1.21-.37 2.39 2.39 0 01-1-1.05 1.31 1.31 0 01.08-1.23 1.34 1.34 0 011-.63 2.08 2.08 0 011.64.6 4.4 4.4 0 01.94 2l1 4.23 1-4.23a4.4 4.4 0 01.94-2 2.08 2.08 0 011.64-.6 1.34 1.34 0 011.05.63 1.31 1.31 0 01.11 1.23zM8.38 8.25A8.38 8.38 0 000 16.63v7.24a8.38 8.38 0 0016.76 0v-7.24a8.38 8.38 0 00-8.38-8.38zM2.3 25.5a.34.34 0 11-.67 0V25a.34.34 0 01.67 0zm0-2.13a.34.34 0 01-.67 0v-.47a.34.34 0 11.67 0zm2.14 5.34a.34.34 0 11-.67 0v-.47a.34.34 0 11.67 0zm0-2.14a.34.34 0 11-.67 0v-.47a.34.34 0 11.67 0zm2.14 3.21a.34.34 0 11-.67 0v-.47a.34.34 0 11.67 0zm0-2.14a.34.34 0 11-.67 0v-.47a.34.34 0 11.67 0zm2.14 1.07a.34.34 0 01-.68 0v-.47a.34.34 0 01.68 0zm0-2.14a.34.34 0 01-.68 0v-.47a.34.34 0 01.68 0zm2.13 3.21a.34.34 0 11-.67 0v-.47a.34.34 0 11.67 0zm0-2.14a.34.34 0 11-.67 0v-.47a.34.34 0 11.67 0zM13 28.71a.34.34 0 11-.67 0v-.47a.34.34 0 11.67 0zm0-2.14a.34.34 0 11-.67 0v-.47a.34.34 0 11.67 0zm2.14-1.07a.34.34 0 11-.67 0V25a.34.34 0 01.67 0zm0-2.13a.34.34 0 01-.67 0v-.47a.34.34 0 11.67 0zm-6.48.92a1.23 1.23 0 01-.54 0c-4-1-6.88-4.26-6.88-8 0-3.43 2.5-6.34 5.46-6.34a4.81 4.81 0 011.58.27.41.41 0 00.22 0 4.81 4.81 0 011.57-.22c3 0 5.46 2.91 5.46 6.34 0 3.66-2.83 6.98-6.88 7.95zM29.4 23c0 1.84-1.4 2.94-3.72 2.94a4.78 4.78 0 01-4.19-2.2l1.31-.92a3.22 3.22 0 002.88 1.58c1.25 0 2-.51 2-1.31s-.68-1.22-2.37-1.69c-1.94-.54-3.09-1.28-3.09-3s1.27-2.7 3.21-2.7a3.91 3.91 0 013.35 1.58l-1.22 1a2.42 2.42 0 00-2.11-1c-1 0-1.54.47-1.54 1.1 0 .86.62 1.1 2.14 1.48 2.04.48 3.35 1.34 3.35 3.14zm10-5.41a3.72 3.72 0 00-3.45-1.9 4.85 4.85 0 00-4.75 5.14 4.84 4.84 0 004.75 5.11A3.7 3.7 0 0039.38 24v1.66h1.81v-9.75h-1.81zm-3.09 6.75a3.21 3.21 0 01-3.21-3.51 3.21 3.21 0 013.21-3.53c1.9 0 3.15 1.45 3.15 3.53s-1.27 3.49-3.17 3.49zm22.58-4.88v6.24h-1.83v-6c0-1.54-.72-2.34-2.08-2.34-1.64 0-2.53 1-2.53 2.7v5.67h-1.81v-6c0-1.54-.69-2.37-2.08-2.37-1.61 0-2.53 1-2.53 2.76v5.61h-1.81v-9.82H46v1.34a3.38 3.38 0 015.86.23 3.76 3.76 0 013.44-1.81 3.44 3.44 0 013.57 3.77zm9.9 3.54c0 1.84-1.4 2.94-3.71 2.94a4.77 4.77 0 01-4.19-2.2l1.3-.92a3.23 3.23 0 002.89 1.58c1.24 0 2-.51 2-1.31s-.69-1.22-2.38-1.69c-1.93-.54-3.09-1.28-3.09-3s1.28-2.7 3.21-2.7a3.94 3.94 0 013.36 1.58l-1.22 1a2.45 2.45 0 00-2.11-1c-1 0-1.55.47-1.55 1.1 0 .86.63 1.1 2.14 1.48 2.04.48 3.35 1.34 3.35 3.14zm10-5.41a3.7 3.7 0 00-3.45-1.9 4.85 4.85 0 00-4.75 5.14 4.84 4.84 0 004.75 5.11A3.69 3.69 0 0078.77 24v1.66h1.81v-9.75h-1.81zm-3.09 6.75a3.21 3.21 0 01-3.21-3.51 3.21 3.21 0 013.21-3.53c1.9 0 3.15 1.45 3.15 3.53s-1.27 3.49-3.17 3.49zm22.67-8.41v1.66a3.68 3.68 0 00-3.44-1.9 4.85 4.85 0 00-4.76 5.14 4.84 4.84 0 004.76 5.11A3.68 3.68 0 0098.35 24v1.66h1.82v-9.75zm-3.09 8.41a3.21 3.21 0 01-3.21-3.51 3.21 3.21 0 013.21-3.53c1.9 0 3.15 1.45 3.15 3.53s-1.27 3.49-3.17 3.49zm-7-8.65L89.44 17l-4 3.56v5.09h-1.83v-9.74h1.82v2.26z" fill="#a0a4a6"/></g></svg>