<svg width="61" height="35" fill="none" xmlns="http://www.w3.org/2000/svg"><path d="M16.04 13.0757c-4.8572 2.1417-8.0765 5.3543-8.246 8.905 0 0 1.299 1.0145 5.422 2.5362 3.6711 1.3527 6.4386 1.6345 6.4386 1.6345v-7.9469c0-1.1836.4518-2.4235 1.3555-3.4944 2.7674.6764 5.8173 1.0145 8.9801 1.0145 3.2193 0 6.2691-.3945 9.0366-1.0145.9037 1.0709 1.3555 2.3108 1.3555 3.4944v7.9469s2.7675-.2818 6.4386-1.6345c4.1794-1.5217 5.4219-2.5362 5.4219-2.5362-.1694-3.5507-3.3322-6.7633-8.2459-8.905 4.8572-2.1417 8.0765-5.3543 8.2459-8.905 0 0-1.299-1.0145-5.4219-2.5362C43.2062.2818 40.4388 0 40.4388 0v7.9469c0 1.1835-.4519 2.4235-1.3555 3.4943-2.7675-.6763-5.8173-1.0145-8.9801-1.0145-3.2193 0-6.2692.3946-9.0366 1.0145-.9037-1.0708-1.3555-2.3108-1.3555-3.4943V0s-2.7675.2818-6.4386 1.6345c-4.1794 1.5217-5.422 2.5362-5.422 2.5362.113 3.5507 3.3323 6.7633 8.1895 8.905zm13.9502-1.8036h.2259c2.8804 0 5.2525.7327 6.9469 1.8036-1.7508 1.0708-4.0665 1.8035-6.9469 1.8035h-.2259c-2.8804 0-5.2525-.7327-6.9469-1.8035 1.6944-1.0709 4.01-1.8036 6.9469-1.8036zM4.6312 31.562v1.9163c0 .3945 0 1.4653-1.412 1.4653H1.412C0 34.9436 0 33.9291 0 33.4783V31.562c0-.1127 0-.2818.226-.2818H.96c.226 0 .226.1691.226.2818v1.9163c0 .1127 0 .5072.5083.5072h1.186c.5083 0 .5083-.3945.5083-.5072V31.562c0-.1127 0-.2818.226-.2818h.7342c.3388 0 .2824.1691.2824.2818zm5.535 0v3.3816H8.8107c-.2824 0-.3954 0-.6778-.2254-.5083-.6763-1.186-1.5217-1.9202-2.3672v2.3672c0 .1127 0 .2818-.226.2818H5.309c-.226-.0564-.226-.1691-.226-.2818V31.562c0-.1127 0-.2818.226-.2818h1.299c.3954 0 .9037.7327 1.2425 1.2399.2824.3946.7343.9582 1.0731 1.3527V31.562c0-.1127 0-.2818.226-.2818h.7342c.2824 0 .2824.1691.2824.2818zm3.6711-.2818h-3.2758v3.6634h1.1296v-.789l.3953.789h1.7509c1.6379 0 1.5249-.8454 1.5249-2.3107 0-1.3527-1.299-1.3527-1.5249-1.3527zm-.1694 2.7053h-1.9203v-1.7472h1.8638c.3953 0 .6212.0564.6212.9018 0 .2818.0565.8454-.5647.8454zm6.2691.5073c0 .2818 0 .4508-.2259.4508h-3.1064c-.2823 0-.7907-.0563-.7907-.9017v-2.029c0-.2255.113-.7327.8472-.7327h2.9934c.2824 0 .2259.1691.2259.4509 0 .2818.0565.4509-.2259.4509h-2.3721c-.0565 0-.2824-.0564-.2824.169 0 .2255-.0565.3382.1694.3382h2.0897l.3389.6763c.0565.1128.0565.1691-.1694.1691h-2.1462l-.3389-.6763v.9581c0 .2255.2259.1691.2824.1691h2.4851c.2259.1127.2259.2818.2259.5073zm5.1396-2.029c0-1.1836-.6213-1.1836-1.0731-1.1836h-3.2758c-.1694 0-.2824.1127-.2824.3382v3.2125c0 .1127.113.1127.113.1127h.9036c.0565 0 .1695 0 .1695-.169v-1.5218s.2823.5073.3953.7891h1.412c.1129 0 .3388 0 .3388.4509 0 .169-.0564.5072.1695.5072h.9601c.0565 0 .113 0 .113-.1691 0-.3945.0565-1.1272-.5083-1.2399.3953-.2818.5648-.3382.5648-1.1272zm-1.9768.6199h-1.5249v-.6763c0-.0564 0-.1691.2259-.1691h1.4684c.5083 0 .5648.0564.5648.4509 0 .2255 0 .3945-.7342.3945zm7.6246-1.7471h-1.1295s-1.7509 3.0998-1.9768 3.607V35h1.2425c.1695-.2818.6778-1.2399.7907-1.409.0565.1691.3389.7327.3389.7327h1.5249l.3389.6199h1.2425v-.1127c-.2259-.4509-1.4684-2.5926-1.6378-2.9307-.2824-.5073-.5084-.5636-.7343-.5636zm.1695 2.1417h-1.1296l-.0565-.0564.6213-1.1272h.0565c.0564.1127.5647 1.0145.5647 1.1272l-.0564.0564zm7.1728-1.0145c0-1.1836-.6213-1.1836-1.0731-1.1836h-3.2758c-.1694 0-.2824.1127-.2824.3382v3.2125c0 .1127.113.1127.113.1127h.9036c.0565 0 .1695 0 .1695-.169v-1.5218s.2824.5073.3953.7891h1.412c.1129 0 .3389 0 .3389.4509 0 .169-.0565.5072.1694.5072h.9601c.0565 0 .113 0 .113-.1691 0-.3945.0565-1.1272-.5083-1.2399.3953-.2818.5648-.3382.5648-1.1272zm-1.9203.6199h-1.5249v-.6763c0-.0564 0-.1691.2259-.1691h1.4684c.5083 0 .5648.0564.5648.4509-.0565.2255-.0565.3945-.7342.3945zm8.3024 1.6345c0 .1127.0564.2818-.2259.2818h-.6778c-.2259 0-.2259-.1691-.2259-.2818v-2.3108c-.4518.8454-1.1296 2.0854-1.412 2.5362h-1.0166c-.2259-.4508-.9037-1.6908-1.3555-2.5362v2.3108c0 .1127 0 .2818-.2259.2818h-.6777c-.226 0-.226-.1691-.226-.2818V31.562c0-.1127 0-.2818.226-.2818h1.1295c.1695 0 .3954-.0564.6778.5072.2259.4509.6212 1.3527.9601 1.8036.2824-.5073.7342-1.409.9602-1.8036.2823-.5636.5083-.5072.6777-.5072h1.1296c.2259 0 .2259.1691.2259.2818v3.1562h.0565zm4.1229-3.438h-2.4286c-1.3555 0-1.299 1.0708-1.299 1.8035 0 .7327-.0565 1.9163 1.0166 1.9163h2.8804c1.1296 0 1.0731-1.1836 1.0731-1.9163.0565-.7327.1695-1.8035-1.2425-1.8035zm.0565 1.8035c0 .3946 0 .9582-.5083.9582h-1.412c-.5648 0-.5083-.5636-.5083-.9582 0-.3381-.0565-.9017.6213-.9017h1.186c.7342 0 .6213.5636.6213.9017zm6.2691-1.5217v1.9163c0 .3945 0 1.4653-1.4119 1.4653H51.678c-1.4119 0-1.4119-1.0708-1.4119-1.4653V31.562c0-.1127 0-.2818.2259-.2818h.7342c.2259 0 .2259.1691.2259.2818v1.9163c0 .1127 0 .5072.5083.5072h1.1861c.5083 0 .5083-.3945.5083-.5072V31.562c0-.1127 0-.2818.2259-.2818h.7342c.3389 0 .2824.1691.2824.2818zm4.6313 1.9726c.3389-.2254.5083-.2818.5083-1.0708 0-1.1836-.6213-1.1836-1.0731-1.1836H55.688c-.1129 0-.2824.1127-.2824.3382v3.2125c0 .1127.113.1127.113.1127h.9601c.0565 0 .1695 0 .1695-.169v-1.5218s.2824.5073.3953.7891h1.412c.1129 0 .3389 0 .3389.4509 0 .169-.0565.5072.1694.5072h.9601c.0565 0 .113 0 .113-.1691 0-.4509.113-1.1836-.5083-1.2963zm-1.412-.4509h-1.5249v-.6763c0-.0564 0-.1691.2259-.1691h1.4684c.5084 0 .5648.0564.5648.4509 0 .2255 0 .3945-.7342.3945z" fill="#fff"/></svg>