<svg width="142" height="31" fill="none" xmlns="http://www.w3.org/2000/svg"><path d="M57.6327 19.9856c0 3.1231-2.6754 5.4714-6.2308 5.4714-4.2125 0-6.2072-2.6224-6.6766-5.0899a.7004.7004 0 01.0916-.4769.682.682 0 01.3778-.298l1.5137-.5125h.0821a.646.646 0 01.2649-.002.6513.6513 0 01.2442.1045.6624.6624 0 01.1837.1939.6759.6759 0 01.0934.2519c.1539.8984.6274 1.7081 1.3305 2.2751.7031.567 1.5867.8518 2.483.8003 2.03 0 3.2855-.9655 3.2855-2.5271 0-1.192-.88-2.1337-2.3468-2.4556l-2.4641-.5364c-2.7927-.6079-4.4354-2.5032-4.4354-5.0542.0967-1.5251.7745-2.952 1.8895-3.9778 1.115-1.026 2.5796-1.5702 4.083-1.5175 4.3651 0 5.6558 2.9086 6.0078 4.1721a.6891.6891 0 01-.0466.5032.6727.6727 0 01-.3758.3313l-1.3611.4887a.682.682 0 01-.528 0 .7062.7062 0 01-.219-.1782.7199.7199 0 01-.1331-.2509c-.1971-.7189-.6306-1.3476-1.2284-1.7813a3.179 3.179 0 00-2.0571-.6028 2.7744 2.7744 0 00-1.1014.1152 2.8023 2.8023 0 00-.9725.5377 2.8531 2.8531 0 00-.6934.8769 2.8954 2.8954 0 00-.307 1.0808 2.274 2.274 0 00.5652 1.5368c.3718.4219.8864.6861 1.4413.7399l2.5815.5722c2.9804.7272 4.6584 2.5748 4.6584 5.2092zm13.5645-1.192v.3695a.696.696 0 01-.2152.4583.6747.6747 0 01-.4654.1854h-7.9908a.1162.1162 0 00-.1056.0596.1452.1452 0 000 .1073c.0796.807.4562 1.5538 1.0545 2.0908.5983.5371 1.3741.8249 2.1723.8058a2.8626 2.8626 0 001.7583-.449c.5238-.3368.9274-.8354 1.1517-1.4225a.6866.6866 0 01.3489-.3588.6707.6707 0 01.496-.0226l1.1734.4291a.62.62 0 01.2344.1407.6333.6333 0 01.1528.2288.6889.6889 0 010 .5484c-.4195 1.0866-1.1607 2.0142-2.1212 2.6547-.9605.6406-2.093.9625-3.2412.9214-1.6109.0191-3.1636-.611-4.3181-1.7523a6.691 6.691 0 01-1.4123-2.2526 6.773 6.773 0 01-.43-2.6347 6.2902 6.2902 0 01.3383-2.4273 6.2194 6.2194 0 011.2381-2.1042 6.1095 6.1095 0 011.9443-1.452 6.023 6.023 0 012.3463-.5727c3.6493-.0835 5.9139 2.4079 5.9139 6.425l-.0234.0239zm-2.9687-1.5735c-.0855-.7034-.437-1.3455-.98-1.7904-.5431-.4449-1.2352-.6578-1.9301-.5937-.6758-.0084-1.3327.2263-1.8546.6626-.5218.4363-.8749 1.0461-.9967 1.7215a.12.12 0 000 .1073.14.14 0 00.1173 0h5.4798a.1283.1283 0 00.1056 0 .0936.0936 0 00.0744-.0441.0972.0972 0 00.0077-.0871l-.0234.0239zm73.0555 5.3403h-.481c-.997 0-1.373-.3695-1.373-1.3589V15.432a.1411.1411 0 01.141-.1311h1.713c.181 0 .354-.0728.481-.2025a.696.696 0 00.2-.4889v-1.2754a.696.696 0 00-.2-.4889.6726.6726 0 00-.481-.2025h-1.713a.1424.1424 0 01-.1-.0419.1457.1457 0 01-.041-.1012V9.5434a.6951.6951 0 00-.199-.4889.6762.6762 0 00-.481-.2025h-1.279a.6865.6865 0 00-.478.2059.709.709 0 00-.203.4855v1.5139c.027.2115.006.4265-.062.6284-.068.2019-.18.3853-.329.5361-.148.1508-.329.265-.527.3339a1.3551 1.3551 0 01-.619.0631h-.176a.661.661 0 00-.477.2032.6863.6863 0 00-.144.2245.699.699 0 00-.048.2637v1.2636a.699.699 0 00.048.2637.6848.6848 0 00.144.2244.6627.6627 0 00.477.2033h1.42c.018 0 .037.0036.054.0108a.1394.1394 0 01.045.031.1446.1446 0 01.042.1012v6.1151c-.044.485.017.9738.177 1.4327.16.459.416.8772.751 1.2261.334.3488.739.62 1.187.7948.447.1748.926.2491 1.405.2179a6.1334 6.1334 0 001.314-.1431.68.68 0 00.382-.2453.7.7 0 00.146-.4341v-1.192a.7097.7097 0 00-.222-.4593.6875.6875 0 00-.47-.1844l-.024.0238zm-56.5576-9.2025v10.5853c.0748 1.5302-.3774 3.0392-1.279 4.2674a5.9344 5.9344 0 01-2.1806 1.5296 5.8525 5.8525 0 01-2.6186.4134c-1.2755.0774-2.537-.3045-3.5628-1.0785-1.0258-.7739-1.7502-1.8904-2.046-3.1532a.7125.7125 0 01.095-.5169.6925.6925 0 01.4213-.3056l1.4198-.3337a.658.658 0 01.2665-.0117.662.662 0 01.2498.0951.7144.7144 0 01.3051.4291c.1302.6644.4883 1.2602 1.0104 1.6815a2.7876 2.7876 0 001.8409.6192c2.2647 0 3.3207-1.1921 3.3207-3.5761v-.5126a.1197.1197 0 00-.0216-.0843.1171.1171 0 00-.0722-.0468.1156.1156 0 00-.1291 0c-.8574.7568-1.9623 1.1607-3.0978 1.1324a5.5348 5.5348 0 01-2.239-.4536 5.6074 5.6074 0 01-1.8755-1.3225 5.713 5.713 0 01-1.2014-1.9723 5.7808 5.7808 0 01-.3281-2.2952 5.792 5.792 0 01.3244-2.3007 5.7245 5.7245 0 011.2-1.9787 5.6194 5.6194 0 011.8769-1.329 5.5448 5.5448 0 012.2427-.4591c1.1338-.0657 2.2498.3093 3.1213 1.049a.116.116 0 00.1291 0 .1528.1528 0 00.0682-.0571.1564.1564 0 00.0256-.0859.7027.7027 0 01.0484-.2683.6916.6916 0 01.1468-.2283.6797.6797 0 01.2222-.153.6715.6715 0 01.2632-.0537h1.4433a.6721.6721 0 01.26.0715.6818.6818 0 01.2124.1684.6947.6947 0 01.1314.239.702.702 0 01.0298.2721l-.0235.0238zm-2.734 5.1377a3.2064 3.2064 0 00-.1333-1.3079 3.1717 3.1717 0 00-.646-1.1394 3.1119 3.1119 0 00-1.0466-.7736 3.0686 3.0686 0 00-1.266-.2737 3.069 3.069 0 00-1.266.2737 3.1119 3.1119 0 00-1.0466.7736 3.17 3.17 0 00-.6459 1.1394 3.2065 3.2065 0 00-.1334 1.3079c0 2.1814 1.1734 3.5761 3.1213 3.5761a3.0812 3.0812 0 001.2895-.2863 3.1256 3.1256 0 001.0578-.8022 3.188 3.188 0 00.6368-1.1745 3.22 3.22 0 00.1019-1.337l-.0235.0239zm37.6426.298v.3695a.6975.6975 0 01-.215.4583.6765.6765 0 01-.466.1854h-7.99a.14.14 0 00-.106 0 .2018.2018 0 000 .1192c.079.8081.456 1.5562 1.054 2.0952.598.539 1.374.8294 2.173.8134a2.874 2.874 0 001.759-.4563c.524-.3389.927-.8389 1.151-1.4272a.6865.6865 0 01.349-.3588.6704.6704 0 01.496-.0226l1.173.4291a.6703.6703 0 01.237.1429.6828.6828 0 01.162.2267c.07.18.07.3802 0 .5602-.433 1.0725-1.179 1.9844-2.138 2.613-.959.6287-2.084.944-3.224.9035a5.9615 5.9615 0 01-2.332-.4373 6.0324 6.0324 0 01-1.986-1.315 6.6872 6.6872 0 01-1.419-2.2512 6.7501 6.7501 0 01-.435-2.6361 6.303 6.303 0 01.341-2.4255 6.2302 6.2302 0 011.239-2.1025 6.1162 6.1162 0 011.942-1.4522 6.034 6.034 0 012.345-.576c3.649 0 5.913 2.5033 5.913 6.5204l-.023.0239zm-2.957-1.5616c-.085-.7034-.437-1.3455-.98-1.7904-.543-.4449-1.235-.6578-1.93-.5937a2.8244 2.8244 0 00-1.857.6598c-.522.4367-.875 1.0479-.994 1.7243a.1117.1117 0 00-.013.0536c0 .0187.004.0371.013.0537a.1418.1418 0 00.046.0419.1365.1365 0 00.059.0177h5.492c.034.011.071.011.105 0a.2203.2203 0 00.064-.0852.2254.2254 0 00.019-.1055l-.024.0238zm11.57-4.9112a4.2564 4.2564 0 00-1.666.2823 4.3064 4.3064 0 00-1.432.9098.1375.1375 0 01-.072.0347.142.142 0 01-.08-.0109.1351.1351 0 01-.06-.0531.144.144 0 01-.023-.078v-.0835a.695.695 0 00-.199-.4888.676.676 0 00-.481-.2025h-1.42a.6726.6726 0 00-.481.2025.6959.6959 0 00-.2.4888v11.074c0 .1834.072.3592.2.4889.127.1297.3.2025.481.2025h1.478c.181 0 .354-.0728.482-.2025a.6995.6995 0 00.199-.4889v-6.5085c0-1.4423.645-2.992 2.452-2.992 1.631 0 2.453.9179 2.453 2.7298v6.723a.695.695 0 00.199.4889.676.676 0 00.481.2025h1.479a.661.661 0 00.477-.2032.6852.6852 0 00.144-.2245.6983.6983 0 00.048-.2637v-7.1522c.023-2.992-1.678-4.8992-4.436-4.8992l-.023.0238zm-26.988 0a4.4451 4.4451 0 00-2.0726.4134 4.5172 4.5172 0 00-1.6592 1.327.165.165 0 01-.0562.0512.1612.1612 0 01-.0729.0203.0926.0926 0 01-.0565-.0142.095.095 0 01-.0373-.0454 4.0224 4.0224 0 00-1.4926-1.3433 3.9487 3.9487 0 00-1.9455-.4447c-1.119-.0142-2.2044.3887-3.0508 1.1324a.1278.1278 0 01-.1526 0 .1424.1424 0 01-.0821-.1311.6972.6972 0 00-.1993-.4889.6753.6753 0 00-.4813-.2025h-1.3846a.675.675 0 00-.4812.2025.6968.6968 0 00-.1994.4889v11.074c0 .1833.0717.3592.1994.4888a.675.675 0 00.4812.2025h1.4433a.675.675 0 00.4812-.2025.6966.6966 0 00.1994-.4888v-6.7112a2.5159 2.5159 0 01.1078-1.0353 2.4892 2.4892 0 01.5167-.899 2.4403 2.4403 0 01.8345-.6043 2.408 2.408 0 011.0051-.2031c.3116-.0172.6232.036.9122.1557a2.111 2.111 0 01.7592.5366c.211.2337.3683.5119.4607.8148.0925.3028.1177.6227.0739.9366v7.0568a.697.697 0 00.1993.4889.6753.6753 0 00.4813.2025h1.5371a.675.675 0 00.4812-.2025.6966.6966 0 00.1994-.4889v-6.7826a2.5283 2.5283 0 01.1129-1.0211 2.5008 2.5008 0 01.5089-.888 2.456 2.456 0 01.8184-.6038 2.4207 2.4207 0 01.989-.2169 2.091 2.091 0 01.916.1566c.291.1203.551.3045.763.5392.212.2348.371.5144.464.8186.093.3043.118.6257.074.9412v7.0568a.6983.6983 0 00.048.2637.6852.6852 0 00.144.2245.6668.6668 0 00.477.2032h1.397a.676.676 0 00.481-.2025.6993.6993 0 00.199-.4889v-7.3071c0-3.3139-2.206-4.8039-4.318-4.8039l-.023.0238zm-79.0639 7.2595a1.6208 1.6208 0 00-.1163-.6149 1.5987 1.5987 0 00-.3401-.5223 1.5701 1.5701 0 00-.5115-.3493 1.552 1.552 0 00-.6045-.1227H1.7203a1.56 1.56 0 00-.6467.0799 1.5787 1.5787 0 00-.5604.3375 1.609 1.609 0 00-.3792.5382 1.631 1.631 0 000 1.2953 1.609 1.609 0 00.3792.5382c.1618.1507.3526.2657.5604.3375a1.56 1.56 0 00.6467.0799h18.9034a1.56 1.56 0 001.1118-.4678 1.6104 1.6104 0 00.4606-1.1295zm7.9087-1.5377a1.5487 1.5487 0 00-1.203.1138 1.5774 1.5774 0 00-.4773.3956 1.6068 1.6068 0 00-.291.5515c-.7488 2.5219-2.2797 4.7304-4.3647 6.2964-2.0849 1.5659-4.6121 2.4055-7.205 2.3935a12.0598 12.0598 0 01-3.5202-.5483 1.5608 1.5608 0 00-1.2692.0411 1.587 1.587 0 00-.5161.399 1.6155 1.6155 0 00-.3155.5757 1.6316 1.6316 0 00.1401 1.2821c.1092.1923.2563.3596.4322.4914a1.573 1.573 0 00.5898.2742A15.2774 15.2774 0 0016.5638 31c3.2671.0028 6.4488-1.0602 9.0766-3.0323 2.6278-1.9721 4.5629-4.7492 5.5204-7.9225a1.6318 1.6318 0 00-.1207-1.2229c-.198-.3754-.5343-.6558-.9353-.7797zm1.3142-8.2131H12.5156a1.5611 1.5611 0 00-.6468.0799 1.5788 1.5788 0 00-.5603.3375 1.6092 1.6092 0 00-.3793.5382 1.6318 1.6318 0 000 1.2953c.0884.2042.2175.3874.3793.5382.1617.1507.3525.2657.5603.3376.2078.0718.4281.099.6468.0798H31.419c.2187.0192.4389-.008.6467-.0798a1.581 1.581 0 00.5604-.3376 1.609 1.609 0 00.3792-.5382 1.6296 1.6296 0 00.134-.6476c0-.223-.0456-.4436-.134-.6477a1.609 1.609 0 00-.3792-.5382 1.5801 1.5801 0 00-.5604-.3375 1.5607 1.5607 0 00-.6467-.08zM3.4921 13.036c.3342.003.6605-.1031.931-.3027a1.5847 1.5847 0 00.571-.8058c.7462-2.5253 2.2758-4.738 4.3607-6.3083 2.0849-1.5703 4.6136-2.414 7.209-2.4055a12.0856 12.0856 0 013.5906.5483c.3887.0896.7963.027 1.1416-.1752a1.6049 1.6049 0 00.7213-.9159 1.633 1.633 0 00-.0822-1.1699 1.5948 1.5948 0 00-.842-.8025 15.0281 15.0281 0 00-5.9359-.6324A15.0783 15.0783 0 009.4368 1.796c-1.776.9536-3.3492 2.2542-4.6291 3.8272-1.28 1.573-2.2414 3.3872-2.8293 5.3387a1.5966 1.5966 0 00-.0704.4649 1.6197 1.6197 0 00.1174.6177c.0791.196.1957.374.3431.5237.1474.1498.3227.2683.5156.3486.1929.0803.3996.1208.608.1192zM25.951 6.921c.3138 0 .6205-.0948.8812-.2721a1.6035 1.6035 0 00.5833-.7242 1.6324 1.6324 0 00.0882-.9314 1.6173 1.6173 0 00-.4368-.8238 1.5767 1.5767 0 00-.8142-.4376 1.561 1.561 0 00-.9161.0965 1.5903 1.5903 0 00-.7085.598 1.6275 1.6275 0 00-.2612.8972c0 .2108.041.4195.1208.614.0797.1946.1966.3712.3438.5197.1473.1485.322.2659.5141.3455.1922.0795.3979.1197.6054.1181zM7.1766 24.0861c-.3138 0-.6205.0947-.8813.2721a1.6034 1.6034 0 00-.5833.7241 1.633 1.633 0 00-.0881.9314c.062.3125.214.5992.4368.8238.2227.2245.506.3769.8141.4376.308.0607.627.0272.9162-.0965a1.59 1.59 0 00.7084-.5979 1.6278 1.6278 0 00.2613-.8973c0-.2107-.041-.4194-.1208-.614a1.5991 1.5991 0 00-.3439-.5197 1.5709 1.5709 0 00-.514-.3455 1.5516 1.5516 0 00-.6054-.1181z" fill="#121C21"/></svg>