<svg viewBox="0 0 155 36" xmlns="http://www.w3.org/2000/svg"><path d="m22.3.1-19 10.1c-.2.1-.4.3-.4.5l-2.9 13.1c0 .2 0 .4.2.4l24.8 11.7c.2.1.4.1.7 0l15.8-7.2c.2-.1.4-.3.4-.5l5.9-26.2c0-.2-.1-.4-.3-.5h-.1l-24.7-1.5c-.2 0-.3 0-.4.1zm2.9 34.8-22.6-10.6h8.1l18.8 2.7zm5.3-7.8 9.3 1.3-13.3 6.1zm-19.1-3.6 7.1-14.1 22-2.5-10.5 19.2zm29.9-17.7-22.3 2.6 3.8-7.5 23.1 1.4zm-23.4 2.7-12.1 1.4 15.7-8.4zm-14.1 2.6 13.6-1.6-7 13.8h-9.3zm37.3 16.6-10.1-1.5 10.8-19.6 4.8-3.5zm17.6-6.9h6.4v3h-10.1v-16.1h3.7zm8.5 3h3.5v-11.7h-3.5zm1.7-17.3c-1.2 0-2.1 1-2.1 2.1 0 1.2 1 2.1 2.1 2.1 1.2 0 2.1-1 2.1-2.1.1-1.1-.9-2.1-2.1-2.1zm12.8 5.6h3.3v10.6c0 3.9-2.3 6.3-6 6.3-3.4 0-5.7-1.8-5.8-4.7l3.5-.1c0 1.1 1 2 2.1 2 1.7 0 2.6-1.1 2.6-3v-1.8c-.5 1-1.6 1.8-3.2 1.8-3.2 0-5.6-2.3-5.6-5.7 0-3.2 2.3-5.7 5.7-5.7 1.5 0 2.9.9 3.4 2zm0 5.4c0-1.5-1.2-2.8-2.8-2.8s-2.8 1.2-2.8 2.8c0 1.5 1.2 2.8 2.8 2.8s2.8-1.3 2.8-2.8zm12.4-5.6c-1.4 0-2.8.8-3.3 2.2v-6.4h-3.5v16.1h3.5v-6.5c0-1.6.8-2.6 2.1-2.6s2.1.9 2.1 2.5v6.6h3.5v-7.2c-.1-2.8-1.8-4.7-4.4-4.7zm10.8-2.5h-3.5v2.8h-1.9v2.8h1.9v4.5c0 3 1.8 4.4 4.1 4.4h1.7v-3h-.8c-1.1 0-1.6-.5-1.6-1.6v-4.4h2.5v-2.8h-2.5v-2.7zm20.5 0h-3.4v2.8h-2v2.8h1.9v4.5c0 3 1.8 4.4 4.1 4.4h1.7v-3h-.7c-1.1 0-1.6-.5-1.6-1.6v-4.4h2.5v-2.8h-2.5zm29.6 8.6c0 3.6-2.3 6.1-5.6 6.1-1.4 0-2.6-.6-3.4-1.8v5.8h-3.5v-16h3.5v1.6c.6-1.2 2-1.9 3.4-1.9 3.3.1 5.6 2.6 5.6 6.2zm-3.6 0c0-1.9-1.2-3.2-2.8-3.2s-2.8 1.3-2.8 3.2 1.2 3.2 2.8 3.2c1.7 0 2.8-1.3 2.8-3.2zm-10.5-.1c0 .4 0 .7-.1 1.1h-8.2c0 1.4 1.2 2.5 2.6 2.5 1.2 0 1.9-.5 2.3-1.4l3 .5c-.5 2.1-2.7 3.5-5.4 3.5-3.6 0-6.1-2.6-6.1-6.2s2.5-6.2 6-6.2c3.5.1 5.9 2.6 5.9 6.2zm-3.5-1.1v-.2c-.1-1.3-1.1-2.3-2.4-2.2-1.3 0-2.3 1.1-2.3 2.3h4.7zm-22.3-.2-1.6-.2c-.7-.1-1.1-.5-1.1-1 0-.7.7-1.2 1.5-1.2.9 0 1.8.7 1.8 1.6l3.2-.1c-.1-2.3-2.1-4-5-4s-4.9 1.7-4.9 4c0 2 1.2 3.2 3.7 3.6l1.6.2c1 .2 1.5.4 1.5 1.1s-.7 1.1-1.7 1.1c-1.2 0-2-.6-2.1-1.6l-3.2.1c.1 2.3 2.3 4 5.3 4s5.1-1.6 5.1-3.9c.1-2-1.4-3.3-4.1-3.7z" fill="#121c21"/><path d="m24 22.7c3.2 0 5.8-2.6 5.8-5.8s-2.6-5.8-5.8-5.8-5.8 2.6-5.8 5.8c-.1 3.2 2.5 5.8 5.8 5.8z" fill="#039c49"/></svg>