<svg width="144" height="31" viewBox="0 0 144 31" fill="none" xmlns="http://www.w3.org/2000/svg">
<path d="M14.4566 25.767C14.4566 26.1212 14.1024 26.4754 13.7482 26.4754C13.3941 26.4754 13.0399 26.1212 13.0399 25.767C13.0399 24.3503 12.42 23.2877 11.0033 22.4908L10.9148 22.4022L11.0033 22.3137C11.446 22.1366 11.8888 21.871 12.243 21.6939C13.7482 22.7564 14.4566 24.0846 14.4566 25.767ZM8.16982 23.819C7.81564 24.1732 7.55 24.5274 7.3729 24.9701H11.8002C11.6231 24.5274 11.446 24.1732 11.0033 23.819H8.16982ZM11.0919 14.5216H8.25837C7.90418 14.8758 7.63854 15.23 7.46145 15.6727H11.8888C11.7117 15.23 11.446 14.8758 11.0919 14.5216ZM8.16982 18.4177H11.0033C11.3575 18.0635 11.6231 17.7093 11.8002 17.2665H7.3729C7.55 17.7093 7.81564 18.0635 8.16982 18.4177ZM19.2381 10.0943C19.1496 10.3599 18.9725 10.537 18.7068 10.6256C14.8993 10.9798 12.8628 11.511 11.446 11.9538C10.5606 12.2194 10.1178 12.3965 9.76366 12.5736H9.67511C8.16982 13.1049 6.31035 14.0789 6.31035 16.4696C6.31035 18.8604 8.25837 19.8344 9.67511 20.3657C11.1804 19.8344 13.0399 18.8604 13.0399 16.4696C13.0399 15.0529 12.42 13.9903 11.0033 13.1934L10.9148 13.1049H11.0033C11.446 12.9278 11.9773 12.8392 12.5971 12.6621C13.7482 13.6361 14.3681 14.9643 14.3681 16.4696C14.3681 18.5062 13.3055 20.1 11.1804 21.1626C10.7377 21.4282 10.2949 21.6053 9.76366 21.7824C9.67511 21.7824 9.58656 21.871 9.58656 21.871C8.08127 22.4022 6.13325 23.3762 6.13325 25.767C6.13325 26.1212 5.77907 26.4754 5.42488 26.4754C5.0707 26.4754 4.71651 26.1212 4.71651 25.767C4.71651 23.7304 5.77907 22.2251 7.72709 21.074C5.69052 20.0115 4.71651 18.4177 4.71651 16.3811C4.71651 14.4331 5.69052 12.9278 7.63854 11.7767C6.2218 11.4225 4.18523 10.8912 0.554831 10.537C0.289192 10.537 0.0235521 10.2714 0.0235521 10.0057C-0.0649943 9.7401 0.112099 9.47446 0.289191 9.29737C0.289191 9.29737 0.997563 8.67755 1.52884 7.26081C1.70593 7.17226 1.70593 6.90662 1.79448 6.64098C2.32576 4.60441 3.47686 0 9.58656 0C15.6963 0 16.9359 4.69296 17.3786 6.64098C17.5557 6.90662 17.6443 7.17226 17.6443 7.34935C18.1756 8.67755 18.8839 9.38592 18.8839 9.38592C19.1496 9.47446 19.2381 9.82865 19.2381 10.0943ZM6.48744 6.99517C6.48744 6.55243 6.13325 6.19825 5.69052 6.19825C5.24779 6.19825 4.8936 6.55243 4.8936 6.99517C4.8936 7.4379 5.24779 7.79208 5.69052 7.79208C6.13325 7.88063 6.48744 7.4379 6.48744 6.99517ZM14.3681 6.99517C14.3681 6.55243 14.0139 6.19825 13.5712 6.19825C13.1284 6.19825 12.7742 6.55243 12.7742 6.99517C12.7742 7.4379 13.1284 7.79208 13.5712 7.79208C14.0139 7.79208 14.3681 7.4379 14.3681 6.99517ZM44.7395 18.152C44.7395 22.1366 41.2862 23.6419 36.8589 23.6419C34.6452 23.6419 32.2544 23.5533 30.5721 23.3762V5.04714C32.1659 4.78151 34.0254 4.51587 36.0619 4.51587C40.4893 4.51587 43.6769 5.93261 43.6769 9.47447C43.6769 11.5996 42.6144 13.0163 40.932 13.4591V13.6361C43.3227 14.3445 44.7395 15.5842 44.7395 18.152ZM33.8483 12.5736H37.0359C39.2496 12.5736 40.5778 11.6881 40.5778 10.0057C40.5778 8.14627 38.8954 7.34935 36.239 7.34935C35.265 7.34935 34.5567 7.4379 33.8483 7.52644V12.5736ZM41.5518 18.152C41.5518 16.204 39.8694 15.3185 37.0359 15.3185H33.8483V20.8969C34.6452 20.9855 35.7078 21.074 36.8589 21.074C39.7809 20.9855 41.5518 20.1 41.5518 18.152ZM58.3756 17.9749H49.8752C50.0523 20.3657 51.5576 21.4282 54.3025 21.4282C55.9849 21.4282 57.4016 20.9855 58.3756 20.5428C58.4642 21.4282 58.11 22.5793 57.5787 23.1106C56.6932 23.6419 55.2765 24.0846 53.5056 24.0846C49.0783 24.0846 46.6875 21.4282 46.6875 17.178C46.6875 12.9278 49.1668 10.0057 53.2399 10.0057C56.8703 10.0057 58.6413 12.308 58.6413 15.6727C58.7298 16.4696 58.6413 17.2665 58.3756 17.9749ZM53.1514 12.3965C51.2034 12.3965 49.9637 13.7247 49.8752 15.6727H55.7192C55.8963 14.0789 55.3651 12.3965 53.1514 12.3965ZM68.647 10.0057C66.1677 10.0057 64.8395 11.0683 64.2197 12.3965H64.0426L63.8655 10.3599C62.8915 10.3599 62.006 10.537 61.3862 10.8027V23.3762C61.6518 23.5533 62.1831 23.6419 62.8915 23.6419C63.6884 23.6419 64.1311 23.5533 64.3968 23.3762V14.6102C64.9281 13.7247 65.8135 12.8392 67.4959 12.8392C69.3554 12.8392 69.9752 13.9018 69.9752 15.6727V23.3762C70.2408 23.5533 70.7721 23.6419 71.4805 23.6419C72.2774 23.6419 72.7201 23.5533 72.9858 23.3762V15.0529C73.0743 10.7141 70.6836 10.0057 68.647 10.0057ZM82.903 21.2511C80.3351 21.2511 78.6528 19.9229 78.6528 16.9124C78.6528 13.9018 80.3351 12.6621 82.903 12.6621C84.1426 12.6621 85.1166 12.9278 86.0907 13.5476C86.2677 12.6621 86.0021 11.3339 85.5594 10.7141C84.851 10.2714 83.6114 10.0057 82.2832 10.0057C78.4757 10.0057 75.5536 12.2194 75.5536 17.178C75.5536 21.4282 77.7673 24.0846 81.929 24.0846C83.4343 24.0846 84.6739 23.7304 85.4708 23.2877C86.0021 22.6679 86.3563 21.3397 86.2677 20.4542C85.2937 20.8969 84.2312 21.2511 82.903 21.2511ZM95.9193 10.0057C93.3515 10.0057 92.1118 11.0683 91.5805 12.3079H91.4034C91.5805 11.2454 91.6691 10.0943 91.6691 8.67755V3.89604C90.2523 3.89604 89.2783 4.07313 88.6585 4.51587V23.3762C88.9241 23.5533 89.4554 23.6419 90.1638 23.6419C90.9607 23.6419 91.4034 23.5533 91.6691 23.3762V14.6102C92.2004 13.6361 93.1744 12.8392 94.8568 12.8392C96.8048 12.8392 97.336 13.9018 97.336 15.6727V23.3762C97.6017 23.5533 98.133 23.6419 98.8413 23.6419C99.6383 23.6419 100.081 23.5533 100.347 23.3762V15.0529C100.435 10.7141 98.0444 10.0057 95.9193 10.0057ZM107.785 21.2511C107.076 21.2511 106.633 21.074 106.633 19.9229V3.89604C105.217 3.89604 104.243 4.07313 103.623 4.51587V20.4542C103.623 22.6679 104.508 23.9961 106.633 23.9961C107.519 23.9961 108.227 23.819 108.759 23.4648C109.201 22.9335 109.555 21.6939 109.378 20.7199C109.024 21.074 108.404 21.2511 107.785 21.2511ZM111.415 10.7141V23.3762C111.681 23.5533 112.212 23.6419 112.92 23.6419C113.717 23.6419 114.16 23.5533 114.425 23.3762V10.7141C114.16 10.537 113.629 10.4485 112.92 10.4485C112.123 10.4485 111.681 10.537 111.415 10.7141ZM112.92 4.16168C111.769 4.16168 110.972 4.87005 110.972 6.1097C110.972 7.2608 111.681 7.96918 112.832 7.96918C113.983 7.96918 114.78 7.34935 114.78 6.02115C114.78 4.87005 114.071 4.16168 112.92 4.16168ZM124.963 10.0057C122.483 10.0057 121.155 11.0683 120.535 12.3965H120.358L120.181 10.3599C119.207 10.3599 118.322 10.537 117.702 10.8027V23.3762C117.967 23.5533 118.499 23.6419 119.207 23.6419C120.004 23.6419 120.447 23.5533 120.712 23.3762V14.6102C121.244 13.7247 122.129 12.8392 123.811 12.8392C125.671 12.8392 126.291 13.9018 126.291 15.6727V23.3762C126.556 23.5533 127.088 23.6419 127.796 23.6419C128.593 23.6419 129.036 23.5533 129.301 23.3762V15.0529C129.39 10.7141 126.999 10.0057 124.963 10.0057ZM144 11.3339V23.3762C144 27.3608 142.76 30.2829 137.802 30.2829C136.208 30.2829 134.437 29.9287 133.02 29.3089C132.489 28.5119 132.312 27.0952 132.666 26.2097C134.348 27.1837 136.031 27.5379 137.448 27.5379C140.104 27.5379 140.989 26.2983 140.989 23.9961C140.989 23.1992 141.167 22.1366 141.255 21.5168H141.078C140.37 22.6679 139.13 23.4648 137.182 23.4648C134.083 23.4648 131.869 21.5168 131.869 17.178C131.869 12.485 134.614 10.0057 139.13 10.0057C140.989 10.0057 142.495 10.4485 144 11.3339ZM140.901 12.9278C140.37 12.6621 139.838 12.5736 138.953 12.5736C136.119 12.5736 134.88 14.3445 134.88 16.9124C134.88 19.3917 136.031 20.7199 138.067 20.7199C139.484 20.7199 140.37 20.0115 140.901 19.2146V12.9278Z" fill="#A0A4A6"/>
</svg>
