<svg width="111" height="34" viewBox="0 0 111 34" fill="none" xmlns="http://www.w3.org/2000/svg">
<path d="M24.1734 12.506C24.1712 13.1806 23.9692 13.8396 23.5927 14.3995C23.2163 14.9594 22.6824 15.3952 22.0585 15.6519C21.4345 15.9086 20.7485 15.9746 20.087 15.8416C19.4256 15.7087 18.8183 15.3827 18.342 14.9048C17.8657 14.427 17.5417 13.8187 17.4109 13.1568C17.28 12.4949 17.3483 11.8091 17.607 11.186C17.8657 10.5629 18.3032 10.0304 18.8643 9.65578C19.4255 9.28116 20.085 9.08123 20.7597 9.08123C21.209 9.08123 21.6538 9.16989 22.0686 9.34213C22.4835 9.51437 22.8603 9.76681 23.1775 10.085C23.4946 10.4031 23.7458 10.7808 23.9167 11.1962C24.0876 11.6116 24.1749 12.0567 24.1734 12.506V12.506ZM12.5735 17.2232C11.8948 17.2189 11.2301 17.4163 10.6637 17.7904C10.0974 18.1645 9.65501 18.6985 9.39273 19.3246C9.13046 19.9506 9.06012 20.6404 9.19066 21.3065C9.32119 21.9726 9.64671 22.5849 10.1259 23.0656C10.6051 23.5463 11.2163 23.8738 11.8819 24.0065C12.5476 24.1392 13.2377 24.0711 13.8645 23.8109C14.4914 23.5506 15.0268 23.11 15.4028 22.5449C15.7788 21.9798 15.9783 21.3157 15.9762 20.6369C15.9512 19.7413 15.5851 18.8891 14.9526 18.2545C14.3201 17.62 13.469 17.2511 12.5735 17.2232V17.2232ZM20.7597 17.2232C20.0814 17.2211 19.4178 17.4203 18.8529 17.7958C18.288 18.1713 17.8474 18.706 17.5868 19.3323C17.3262 19.9585 17.2575 20.648 17.3892 21.3134C17.521 21.9787 17.8474 22.59 18.3271 23.0696C18.8067 23.5492 19.4179 23.8756 20.0833 24.0074C20.7486 24.1392 21.4381 24.0704 22.0644 23.8099C22.6906 23.5493 23.2254 23.1086 23.6008 22.5437C23.9763 21.9789 24.1756 21.3152 24.1734 20.6369C24.1484 19.7395 23.7807 18.8857 23.1458 18.2508C22.511 17.616 21.6572 17.2483 20.7597 17.2232ZM12.5735 9.08123C11.8953 9.07685 11.231 9.27398 10.6649 9.64763C10.0988 10.0213 9.65639 10.5546 9.39379 11.18C9.13119 11.8054 9.0602 12.4947 9.18984 13.1604C9.31948 13.8262 9.6439 14.4385 10.122 14.9197C10.6 15.4008 11.2102 15.7292 11.8751 15.8632C12.5401 15.9971 13.2298 15.9306 13.8569 15.672C14.4839 15.4135 15.0201 14.9746 15.3974 14.4109C15.7747 13.8472 15.9761 13.1842 15.9762 12.506C15.9776 12.0577 15.8908 11.6135 15.7205 11.1988C15.5503 10.784 15.3001 10.4069 14.9841 10.0889C14.6682 9.77086 14.2927 9.51819 13.8791 9.3453C13.4654 9.17241 13.0218 9.08268 12.5735 9.08123V9.08123ZM33.2324 16.5714C33.2323 19.8522 32.2585 23.0591 30.4341 25.7859C28.6098 28.5127 26.0172 30.6366 22.9847 31.8885C19.9522 33.1405 16.6163 33.4641 13.3997 32.8184C10.1831 32.1727 7.23051 30.5867 4.91609 28.2615C2.60166 25.9362 1.02954 22.9762 0.39889 19.7567C-0.231755 16.5371 0.107464 13.2027 1.37357 10.1761C2.63968 7.1495 4.77569 4.56681 7.51097 2.75527C10.2463 0.943729 13.4577 -0.0151297 16.7384 0.000180524V0.000180524C21.12 0.020628 25.3151 1.77555 28.4061 4.88105C31.4971 7.98655 33.2324 12.1898 33.2324 16.5714V16.5714ZM28.8134 16.5714C28.8133 14.1647 28.0986 11.8121 26.7598 9.81204C25.4211 7.81197 23.5186 6.25447 21.2935 5.33701C19.0685 4.41955 16.6211 4.18345 14.2617 4.65865C11.9023 5.13385 9.73719 6.29895 8.04078 8.00621C6.34438 9.71348 5.19313 11.886 4.733 14.2484C4.27288 16.6108 4.52459 19.0566 5.45624 21.2757C6.38788 23.4949 7.95749 25.3874 9.96607 26.7134C11.9746 28.0393 14.3317 28.739 16.7384 28.7237V28.7237C18.3303 28.7223 19.9061 28.4064 21.3755 27.7942C22.8449 27.1821 24.1789 26.2856 25.3009 25.1565C26.4229 24.0273 27.3107 22.6876 27.9135 21.2143C28.5163 19.7411 28.8221 18.1632 28.8134 16.5714ZM77.4997 11.4785H66.3086C66.165 11.4785 66.0214 11.6332 65.944 11.8431L64.4968 17.3669L64.3532 17.7314L62.6077 11.8431C62.578 11.7589 62.5299 11.6825 62.4668 11.6194C62.4037 11.5563 62.3273 11.5082 62.2431 11.4785H57.8241C57.6805 11.4785 57.5369 11.6332 57.4595 11.8431L55.7914 17.3669L55.6478 17.7314L55.5041 17.3669L54.8523 14.605L54.2005 11.8431C54.1677 11.7607 54.1185 11.6859 54.0558 11.6232C53.9931 11.5606 53.9183 11.5113 53.836 11.4785H44.998V6.76125C44.9206 6.61763 44.777 6.47402 44.6334 6.5403H44.5671L39.0433 8.28581C38.9679 8.28424 38.8935 8.30419 38.829 8.34331C38.7644 8.38244 38.7123 8.43913 38.6788 8.50676V11.5559H37.2316C37.0769 11.5559 36.9333 11.6995 36.867 11.9204V16.1406C36.867 16.2842 37.0106 16.4278 37.2316 16.4941H38.6788V21.6643C38.6788 25.2879 40.6342 26.9671 44.3351 26.9671C45.712 26.9686 47.0728 26.6709 48.3233 26.0944V21.6754C48.3233 21.4544 48.1023 21.3108 47.9587 21.4544C47.469 21.6434 46.9563 21.766 46.4341 21.819C46.2607 21.8538 46.082 21.8523 45.9092 21.8147C45.7364 21.777 45.5733 21.704 45.4301 21.6002C45.2869 21.4965 45.1667 21.3642 45.0772 21.2117C44.9876 21.0592 44.9305 20.8899 44.9096 20.7142V16.4941H48.1023C48.1914 16.4783 48.2738 16.4363 48.3388 16.3732C48.4038 16.3102 48.4484 16.2292 48.4669 16.1406V12.5722L52.676 26.5142C52.7033 26.5996 52.7507 26.6772 52.8141 26.7406C52.8775 26.804 52.9551 26.8514 53.0405 26.8788H57.6805C57.8241 26.8788 57.9677 26.7351 58.0451 26.5142L60.0005 20.3386L61.0168 23.5424L61.8896 26.5142C61.9166 26.598 61.9626 26.6744 62.0239 26.7377C62.0852 26.8009 62.1602 26.8491 62.2431 26.8788H66.8831C67.0377 26.8788 67.1813 26.7351 67.2476 26.5142L71.4567 12.5612V26.5142C71.4567 26.6578 71.6003 26.8125 71.8213 26.8788H77.4997C77.6433 26.8788 77.7869 26.7351 77.8643 26.5142V11.8431C77.7649 11.6995 77.6212 11.4785 77.4997 11.4785ZM92.4138 6.5403H86.5366C86.393 6.5403 86.2493 6.68392 86.1831 6.90487V10.3185C86.1988 10.4077 86.2409 10.4901 86.3039 10.555C86.3669 10.62 86.448 10.6646 86.5366 10.6831H92.4138C92.5575 10.6831 92.7011 10.5395 92.7784 10.3185V6.76125C92.7011 6.68392 92.6348 6.5403 92.4138 6.5403ZM110.09 19.0461C110.09 23.2552 106.544 26.8898 101.605 26.8898C100.537 26.9326 99.4706 26.7631 98.468 26.3911C97.4655 26.0191 96.5468 25.4519 95.7649 24.7224C94.983 23.993 94.3536 23.1157 93.913 22.1413C93.4724 21.167 93.2295 20.1149 93.1982 19.0461C93.1982 14.8259 96.7445 11.1913 101.683 11.1913C102.748 11.1559 103.809 11.3314 104.806 11.7074C105.802 12.0835 106.715 12.6529 107.491 13.3828C108.267 14.1127 108.892 14.9887 109.328 15.9606C109.765 16.9325 110.005 17.9811 110.035 19.0461H110.09ZM104.146 19.1124C104.179 18.7791 104.141 18.4428 104.035 18.1251C103.929 17.8075 103.757 17.5158 103.531 17.2688C103.305 17.0219 103.03 16.8253 102.723 16.6918C102.416 16.5583 102.084 16.491 101.749 16.4941H101.683C101.355 16.5049 101.034 16.5822 100.738 16.7215C100.441 16.8607 100.176 17.0589 99.9593 17.304C99.7421 17.549 99.5772 17.8358 99.4747 18.1467C99.3721 18.4576 99.334 18.7862 99.3627 19.1124C99.3327 19.7758 99.5671 20.4241 100.014 20.9149C100.462 21.4058 101.086 21.6991 101.749 21.7306H101.804C102.129 21.7155 102.447 21.6349 102.739 21.4938C103.031 21.3526 103.292 21.1537 103.506 20.9092C103.72 20.6646 103.882 20.3793 103.982 20.0705C104.083 19.7618 104.12 19.4358 104.091 19.1124H104.146ZM92.3255 11.4785H86.6139C86.4703 11.4785 86.3267 11.6332 86.2493 11.8431V26.3153C86.2493 26.4589 86.393 26.6026 86.6139 26.6689H92.2702C92.4138 26.6689 92.5575 26.5252 92.6348 26.3153V11.8431C92.6348 11.6995 92.4912 11.5559 92.2702 11.4785H92.3255ZM71.8213 6.5403C71.6777 6.5403 71.5341 6.68392 71.4567 6.90487V10.3185C71.4567 10.4622 71.6003 10.6168 71.8213 10.6831H77.6986C77.8422 10.6831 77.9858 10.5395 78.0521 10.3185V6.76125C77.9085 6.61763 77.8422 6.5403 77.6986 6.5403H71.8213ZM84.8684 6.5403H79.2121C79.0685 6.5403 78.9248 6.68392 78.8586 6.90487V26.5142C78.8586 26.6578 79.0022 26.8014 79.2121 26.8788H84.8684C85.0231 26.8788 85.1667 26.7241 85.233 26.5142V6.76125C85.233 6.68392 85.0893 6.5403 84.8684 6.5403Z" fill="#A0A4A6"/>
</svg>
