<svg width="22" height="22" viewBox="0 0 22 22" fill="none" xmlns="http://www.w3.org/2000/svg">
<rect x="0.845703" y="0.846161" width="20.3077" height="20.3077" rx="10.1538" stroke="#121C21"/>
<path d="M10.9992 16.0769C12.0034 16.0769 12.9849 15.7792 13.8198 15.2213C14.6547 14.6635 15.3055 13.8706 15.6897 12.9429C16.074 12.0152 16.1745 10.9944 15.9786 10.0096C15.7827 9.02473 15.2992 8.12011 14.5892 7.41009C13.8792 6.70007 12.9745 6.21654 11.9897 6.02065C11.0049 5.82475 9.98408 5.92529 9.05639 6.30955C8.12871 6.69381 7.3358 7.34454 6.77794 8.17943C6.22008 9.01433 5.92232 9.9959 5.92232 11" stroke="#121C21" stroke-linecap="round"/>
<path d="M5.92383 10.8943L5.92383 12.5866" stroke="#121C21" stroke-linecap="round" stroke-linejoin="round"/>
<path d="M3.38477 10.5769L5.92323 13.1154L8.46169 10.5769" stroke="#121C21" stroke-linecap="round" stroke-linejoin="round"/>
</svg>
